<svg xmlns="http://www.w3.org/2000/svg" xmlns:xlink="http://www.w3.org/1999/xlink" width="794" zoomAndPan="magnify" viewBox="0 0 594.95996 842.24997" height="1123" preserveAspectRatio="xMidYMid meet" version="1.0"><defs><clipPath id="4e3d6e4919"><path d="M 7.605469 14.484375 L 587.589844 14.484375 L 587.589844 826.761719 L 7.605469 826.761719 Z M 7.605469 14.484375 " clip-rule="nonzero"/></clipPath></defs><g clip-path="url(#4e3d6e4919)"><path fill="#ead5bb" d="M 10.300781 338.332031 L 118.207031 408.480469 L 91.230469 443.558594 L 69.648438 532.59375 L 91.230469 597.347656 L 145.183594 589.253906 L 166.761719 699.878906 L 191.042969 815.894531 L 250.386719 826.6875 L 301.644531 707.972656 L 396.058594 640.519531 L 425.730469 494.820312 L 417.640625 432.765625 L 495.871094 492.121094 L 560.613281 462.445312 L 582.191406 362.613281 L 555.21875 300.558594 L 587.589844 225.007812 L 539.03125 149.460938 L 450.011719 125.179688 L 358.292969 49.632812 L 266.574219 14.558594 L 161.367188 65.820312 L 123.601562 171.046875 L 80.441406 165.652344 L 7.605469 246.59375 Z M 10.300781 338.332031 " fill-opacity="1" fill-rule="nonzero"/></g><path fill="#262626" d="M 100.988281 381.425781 C 100.988281 380.710938 102.433594 380.972656 104.199219 382 C 105.964844 383.03125 110.824219 383.90625 115 383.929688 L 115 383.925781 C 119.617188 383.960938 124.097656 382.726562 126.433594 380.773438 C 130.070312 377.730469 130.121094 377.253906 127.382812 371.722656 C 125.566406 368.042969 123.539062 366.25 121.914062 366.871094 C 120.492188 367.417969 117.886719 367.300781 116.121094 366.613281 C 113.195312 365.476562 113.273438 365.066406 116.996094 362.03125 C 120.953125 358.800781 120.988281 358.503906 118.035156 352.535156 C 116.359375 349.144531 113.726562 345.429688 112.183594 344.277344 C 109.804688 342.5 109.757812 341.726562 111.875 339.179688 C 113.828125 336.820312 113.914062 335.175781 112.265625 331.554688 C 111.105469 329.015625 110.160156 326.585938 110.160156 326.164062 C 110.160156 325.734375 111.398438 325.863281 112.910156 326.445312 C 114.601562 327.09375 115.664062 326.441406 115.664062 324.761719 C 115.664062 322.917969 118.371094 321.613281 123.917969 320.78125 C 128.457031 320.101562 132.171875 318.769531 132.171875 317.820312 C 132.171875 316.875 133.679688 316.097656 135.519531 316.097656 C 137.363281 316.097656 140.703125 314.144531 142.945312 311.761719 C 145.9375 308.574219 149.761719 307.136719 157.339844 306.355469 C 165.769531 305.484375 168.578125 305.945312 172.6875 308.875 C 176.492188 311.582031 178.785156 312.050781 182.078125 310.796875 C 184.476562 309.886719 188.675781 305.914062 191.40625 301.972656 C 194.140625 298.027344 196.375 293.78125 196.375 292.53125 C 196.375 291.28125 194.679688 288.4375 192.605469 286.210938 C 191.398438 284.921875 190.507812 283.441406 189.933594 281.773438 C 189.359375 280.101562 189.152344 278.386719 189.3125 276.628906 C 189.574219 273.585938 189.136719 270.042969 188.34375 268.753906 C 187.546875 267.46875 186.933594 262.527344 186.984375 257.773438 C 187.03125 253.019531 186.171875 246.859375 185.078125 244.085938 C 183.175781 239.253906 182.667969 239.082031 173.398438 240.070312 C 167.296875 240.722656 163.253906 240.363281 162.476562 239.097656 C 161.707031 237.859375 158.667969 237.558594 154.5 238.308594 C 150.796875 238.972656 146.742188 240.332031 145.492188 241.324219 C 144.238281 242.320312 140.238281 242.566406 136.574219 241.882812 C 130.554688 240.75 130.019531 240.171875 130.886719 235.710938 C 131.414062 233.003906 130.886719 225.035156 129.714844 218.003906 C 127.71875 206.027344 127.234375 205.117188 121.984375 203.621094 C 117.691406 202.398438 114.898438 202.847656 110.058594 205.539062 C 105.234375 208.222656 103.601562 210.4375 103.164062 214.894531 C 102.664062 219.964844 101.9375 220.691406 97.660156 220.398438 C 94.949219 220.214844 90.792969 220.703125 88.417969 221.480469 C 84.382812 222.804688 84.179688 223.527344 85.320312 232.648438 C 86.148438 239.289062 85.789062 243.597656 84.195312 246.152344 C 82.332031 249.136719 82.308594 251.164062 84.082031 256.070312 C 85.308594 259.460938 86.3125 263.941406 86.3125 266.019531 C 86.3125 268.164062 84.835938 270.191406 82.90625 270.695312 C 81.03125 271.183594 78.28125 270.90625 76.796875 270.074219 C 75.050781 269.097656 72.074219 269.988281 68.347656 272.609375 C 65.1875 274.832031 62.078125 278.980469 61.441406 281.820312 C 60.804688 284.664062 59.242188 287.390625 57.96875 287.878906 C 56.695312 288.367188 55.878906 290.824219 56.15625 293.339844 C 56.476562 296.25 55.378906 298.710938 53.140625 300.109375 C 51.207031 301.316406 49.625 304.121094 49.625 306.339844 C 49.625 308.5625 50.449219 310.886719 51.460938 311.511719 C 52.46875 312.136719 53.292969 315.128906 53.292969 318.164062 C 53.292969 321.195312 54.21875 325.40625 55.347656 327.515625 C 57.058594 330.714844 56.730469 331.851562 53.371094 334.390625 C 49.832031 337.058594 49.679688 337.710938 52.117188 339.734375 C 53.644531 341 55.464844 344.636719 56.160156 347.8125 C 56.859375 350.992188 58.347656 355.0625 59.472656 356.859375 C 60.59375 358.660156 62.554688 360.132812 63.824219 360.132812 C 65.09375 360.132812 66.136719 360.957031 66.136719 361.96875 C 66.136719 362.976562 67.285156 363.804688 68.691406 363.804688 C 70.097656 363.804688 71.722656 365.039062 72.300781 366.554688 C 72.882812 368.066406 74.675781 369.308594 76.289062 369.308594 C 77.902344 369.308594 81.921875 371.367188 85.222656 373.886719 C 88.523438 376.402344 91.761719 377.921875 92.425781 377.261719 C 93.085938 376.597656 95.285156 377.554688 97.308594 379.386719 C 99.332031 381.207031 100.988281 382.136719 100.988281 381.425781 Z M 109.691406 370.769531 C 107.628906 372.480469 106.460938 372.574219 105.554688 371.105469 C 104.859375 369.980469 104.71875 368.628906 105.246094 368.105469 C 105.773438 367.574219 107.636719 367.425781 109.382812 367.769531 C 112.25 368.328125 112.28125 368.625 109.691406 370.769531 Z M 122.582031 238.015625 C 124.019531 235.449219 124.441406 235.4375 126.507812 237.925781 C 127.777344 239.460938 128.285156 241.578125 127.636719 242.628906 C 126.984375 243.683594 125.722656 244.546875 124.835938 244.546875 L 124.835938 244.539062 C 123.945312 244.539062 122.710938 243.71875 122.09375 242.71875 C 121.472656 241.714844 121.691406 239.601562 122.582031 238.015625 Z M 103.675781 247.714844 C 105.375 244.441406 105.601562 242.378906 104.347656 241.601562 C 103.304688 240.957031 102.929688 238.039062 103.515625 235.113281 C 104.101562 232.191406 106.160156 228.101562 108.09375 226.023438 C 110.867188 223.046875 111.933594 222.765625 113.160156 224.683594 C 114.015625 226.019531 115.691406 229.894531 116.882812 233.296875 C 118.074219 236.695312 118.609375 240.617188 118.078125 242.011719 C 117.542969 243.40625 118.042969 244.546875 119.191406 244.546875 C 120.339844 244.546875 121.832031 245.988281 122.507812 247.753906 C 123.179688 249.523438 125.199219 252.546875 126.992188 254.476562 C 129.488281 257.164062 132.300781 257.871094 139.007812 257.480469 C 143.824219 257.203125 149.414062 256.796875 151.433594 256.578125 C 153.765625 256.28125 156.023438 255.6875 158.199219 254.796875 C 159.941406 254.019531 163.558594 254.496094 166.457031 255.882812 C 170.03125 257.59375 171.667969 259.804688 171.792969 263.085938 C 171.890625 265.691406 173.335938 270.554688 175.003906 273.894531 C 176.667969 277.234375 178.03125 280.253906 178.03125 280.605469 C 178.03125 280.953125 176.753906 281.238281 175.191406 281.238281 C 173.628906 281.238281 170.320312 283.433594 167.835938 286.113281 C 165.351562 288.796875 162.816406 290.484375 162.203125 289.871094 C 161.589844 289.253906 159.886719 289.953125 158.421875 291.417969 C 156.957031 292.882812 152.617188 294.082031 148.78125 294.082031 C 144.941406 294.082031 139.308594 294.582031 136.257812 295.191406 C 131.28125 296.1875 130.59375 295.761719 129.558594 291.035156 C 128.921875 288.136719 125.535156 282.640625 122.03125 278.816406 C 117.363281 273.71875 115.664062 270.1875 115.664062 265.59375 C 115.664062 260.078125 114.792969 258.929688 108.386719 255.992188 C 101.285156 252.738281 101.171875 252.542969 103.675781 247.714844 Z M 91.847656 271.167969 C 92.871094 271.800781 93.234375 273.089844 92.65625 274.027344 C 92.074219 274.964844 91.234375 275.734375 90.789062 275.734375 C 90.34375 275.734375 89.980469 274.449219 89.980469 272.875 C 89.980469 271.296875 90.820312 270.53125 91.847656 271.167969 Z M 94.265625 343.136719 C 95.484375 343.90625 97.4375 346.726562 98.609375 349.398438 C 99.78125 352.074219 100.246094 354.757812 99.640625 355.363281 C 99.035156 355.96875 98.0625 356.339844 97.472656 356.1875 C 96.882812 356.035156 94.101562 355.566406 91.292969 355.140625 C 88.484375 354.71875 85.1875 352.777344 83.972656 350.828125 C 82.757812 348.878906 81.054688 347.289062 80.1875 347.289062 C 79.320312 347.289062 75.101562 343.574219 70.816406 339.03125 C 66.527344 334.492188 63.511719 330.773438 64.117188 330.773438 C 64.722656 330.773438 62.742188 328.582031 59.714844 325.902344 C 56.6875 323.226562 55.65625 321.550781 57.421875 322.179688 C 59.789062 323.023438 60.632812 322.359375 60.632812 319.644531 C 60.632812 317.625 61.828125 314.140625 63.289062 311.90625 C 64.753906 309.671875 65.761719 306.605469 65.53125 305.089844 C 65.21875 303.332031 64.617188 301.679688 63.734375 300.128906 C 62.800781 298.632812 64.695312 297.292969 69.605469 295.96875 C 73.59375 294.894531 77.128906 293.203125 77.460938 292.203125 C 77.839844 291.0625 80.441406 291.246094 84.457031 292.695312 C 87.96875 293.960938 92.363281 296.238281 94.21875 297.753906 C 96.074219 299.265625 98.398438 301.972656 99.382812 303.761719 C 100.707031 306.179688 100.191406 308.394531 97.398438 312.320312 C 94.816406 315.949219 93.375 321.421875 92.835938 329.675781 C 92.304688 337.859375 92.761719 342.183594 94.265625 343.136719 Z M 94.265625 343.136719 " fill-opacity="1" fill-rule="nonzero"/><path fill="#262626" d="M 230.09375 467.492188 C 233.460938 464.941406 233.449219 464.671875 229.636719 456.5625 C 227.488281 451.988281 225.726562 446.984375 225.726562 445.449219 C 225.726562 443.910156 224.984375 441.21875 224.070312 439.464844 C 223.160156 437.710938 221.363281 432.5625 220.078125 428.023438 C 218.789062 423.480469 216.535156 417.320312 215.0625 414.332031 C 213.59375 411.339844 210.4375 407.359375 208.050781 405.484375 C 205.667969 403.605469 203.714844 400.125 203.714844 397.75 C 203.714844 395.175781 201.675781 391.898438 198.671875 389.644531 C 195.894531 387.566406 192.628906 385.03125 191.410156 384.007812 C 190.191406 382.988281 188.6875 382.152344 188.070312 382.152344 C 187.449219 382.152344 185.710938 383.386719 184.207031 384.890625 C 182.699219 386.398438 181.890625 388.3125 182.40625 389.148438 C 182.921875 389.984375 183.765625 392.980469 184.277344 395.808594 C 184.789062 398.636719 186.484375 402.359375 188.042969 404.082031 C 189.601562 405.800781 190.875 408.429688 190.875 409.917969 C 190.875 411.40625 193.78125 415.441406 197.332031 418.882812 C 200.878906 422.324219 204.753906 428.472656 205.9375 432.542969 C 207.125 436.617188 208.015625 441.183594 207.917969 442.699219 C 207.820312 444.214844 207.253906 448.980469 206.65625 453.292969 C 206.058594 457.605469 206.308594 462.558594 207.207031 464.300781 C 208.105469 466.042969 210.164062 470.769531 211.777344 474.808594 C 213.394531 478.84375 215.367188 485.417969 216.164062 489.417969 C 217.28125 495.046875 218.628906 496.933594 222.128906 497.765625 C 225.222656 498.503906 226.644531 500.105469 226.644531 502.855469 C 226.644531 505.066406 228.914062 509.285156 231.6875 512.234375 C 234.464844 515.179688 236.734375 518.5625 236.734375 519.746094 C 236.734375 520.933594 237.765625 521.53125 239.027344 521.085938 C 240.289062 520.636719 241.09375 518.335938 240.816406 515.96875 C 240.539062 513.601562 239.589844 511.214844 238.710938 510.664062 C 237.832031 510.117188 237.164062 504.140625 237.234375 497.386719 C 237.304688 490.058594 236.425781 483.988281 235.050781 482.332031 C 233.785156 480.804688 233.28125 478.695312 233.933594 477.640625 C 234.582031 476.585938 233.621094 475.667969 231.796875 475.582031 C 229.871094 475.496094 229.441406 475.046875 230.773438 474.511719 C 232.03125 474 233.066406 472.828125 233.066406 471.902344 C 233.066406 470.976562 231.621094 470.207031 229.855469 470.164062 C 226.90625 470.109375 226.925781 469.890625 230.09375 467.492188 Z M 230.09375 467.492188 " fill-opacity="1" fill-rule="nonzero"/><path fill="#262626" d="M 497.027344 226.210938 C 495.230469 226.210938 493.304688 225.472656 492.746094 224.566406 C 492.1875 223.664062 488.589844 221.285156 484.75 219.285156 C 480.914062 217.285156 474.398438 215.609375 470.273438 215.542969 C 464.820312 215.46875 461.78125 216.53125 459.113281 219.449219 C 457.09375 221.65625 454.777344 225.523438 453.957031 228.046875 C 453.136719 230.570312 452.683594 233.726562 452.941406 235.0625 C 453.199219 236.398438 452.46875 238.628906 451.316406 240.019531 C 450.160156 241.410156 449.667969 244.035156 450.21875 245.847656 C 450.773438 247.664062 451.707031 252.003906 452.300781 255.492188 C 452.890625 258.984375 454.269531 262.917969 455.367188 264.238281 C 456.460938 265.558594 459.101562 266.394531 461.234375 266.101562 C 463.367188 265.808594 465.984375 265.015625 467.050781 264.347656 C 468.117188 263.675781 472.246094 263.160156 476.222656 263.226562 C 480.484375 263.285156 486.199219 261.707031 490.136719 259.382812 C 495.804688 256.035156 497.03125 254.128906 498.230469 246.789062 C 499.007812 242.03125 499.792969 235.453125 499.96875 232.175781 C 500.21875 227.558594 499.554688 226.210938 497.027344 226.210938 Z M 497.027344 226.210938 " fill-opacity="1" fill-rule="nonzero"/><path fill="#262626" d="M 544.90625 268.921875 C 544.90625 267.632812 545.664062 266.574219 546.59375 266.574219 C 547.523438 266.574219 548.808594 263.890625 549.453125 260.613281 C 550.097656 257.332031 551.539062 252.792969 552.660156 250.523438 C 554.164062 247.476562 554.148438 245.3125 552.59375 242.265625 C 551.273438 239.488281 550.34375 236.582031 549.808594 233.550781 C 549.433594 231.027344 548.007812 225.042969 546.636719 220.25 C 545.265625 215.457031 543.578125 211.535156 542.886719 211.535156 C 542.195312 211.535156 541.605469 209.675781 541.578125 207.40625 C 541.554688 205.136719 540.921875 200.828125 540.175781 197.832031 C 539.433594 194.839844 537.097656 190.941406 534.984375 189.179688 C 532.875 187.414062 530.164062 185.953125 528.960938 185.910156 C 527.757812 185.875 525.558594 184.117188 524.078125 182.003906 C 522.285156 179.433594 520.230469 178.519531 517.910156 179.261719 C 515.757812 179.945312 512.933594 178.964844 510.488281 176.683594 C 508.316406 174.660156 505.789062 173.003906 504.878906 173.003906 C 503.964844 173.003906 501.203125 170.992188 498.742188 168.53125 C 494.855469 164.644531 493.367188 164.257812 487.441406 165.59375 C 483.6875 166.4375 478.777344 166.6875 476.53125 166.140625 C 474.285156 165.59375 471.210938 164.097656 469.699219 162.820312 C 467.464844 160.929688 465.449219 161 459.003906 163.195312 L 451.058594 165.902344 L 438.464844 152.769531 C 431.539062 145.546875 425.027344 140.160156 423.996094 140.796875 C 422.96875 141.433594 421.074219 140.269531 419.789062 138.214844 C 418.503906 136.15625 416.433594 134.472656 415.183594 134.472656 C 413.9375 134.472656 411.566406 132.410156 409.914062 129.886719 C 408.257812 127.363281 405.332031 125.300781 403.410156 125.300781 C 401.464844 125.300781 398.992188 127.324219 397.835938 129.863281 C 395.988281 133.914062 394.964844 134.300781 388.734375 133.304688 C 383.109375 132.402344 381.46875 132.8125 380.492188 135.347656 C 379.777344 137.214844 380.328125 139.164062 381.839844 140.101562 C 383.246094 140.976562 384.402344 143.148438 384.402344 144.925781 C 384.40625 147.367188 385.757812 148.085938 389.90625 147.851562 C 392.929688 147.679688 397.261719 146.976562 399.53125 146.296875 C 402.625 145.367188 403.660156 145.800781 403.660156 148.019531 C 403.660156 149.652344 404.882812 150.988281 406.375 150.988281 C 407.871094 150.988281 409.613281 153.050781 410.246094 155.574219 C 411.035156 158.722656 412.65625 160.160156 415.417969 160.160156 C 417.625 160.160156 420.425781 161.152344 421.636719 162.363281 C 422.847656 163.574219 423.839844 166.050781 423.839844 167.867188 C 423.839844 169.683594 425.078125 171.167969 426.589844 171.167969 C 428.304688 171.167969 429.441406 173.070312 429.605469 176.214844 C 429.75 178.988281 429.800781 184.457031 429.714844 188.367188 C 429.628906 192.277344 429.121094 196.613281 428.589844 198 C 428.058594 199.390625 426.769531 200.523438 425.730469 200.523438 C 424.691406 200.523438 422.246094 198.933594 420.296875 196.984375 C 416.800781 193.484375 416.65625 193.492188 408.476562 197.441406 C 403.734375 199.730469 399.953125 202.90625 399.632812 204.867188 C 399.300781 206.910156 396.109375 209.453125 391.738281 211.160156 C 387.703125 212.738281 383.988281 214.496094 383.480469 215.074219 C 382.976562 215.648438 379.738281 217.132812 376.285156 218.375 C 371.695312 220.019531 369.351562 220.085938 367.574219 218.609375 C 366.234375 217.496094 365.136719 215.441406 365.136719 214.035156 C 365.136719 212.632812 364.375 210.050781 363.4375 208.296875 C 362.371094 206.238281 361.472656 204.105469 360.742188 201.902344 C 360.199219 200.136719 358.488281 198.691406 356.941406 198.691406 C 355.394531 198.691406 352.6875 200.28125 350.921875 202.226562 C 349.15625 204.175781 346.71875 206.859375 345.507812 208.191406 C 343.941406 209.859375 342.285156 211.433594 340.539062 212.910156 C 339.019531 214.171875 336.710938 215.210938 335.40625 215.214844 C 334.105469 215.222656 331.074219 218.113281 328.671875 221.636719 C 326.273438 225.164062 323.589844 228.046875 322.710938 228.046875 C 322.488281 228.058594 322.277344 228.109375 322.078125 228.207031 C 321.878906 228.300781 321.703125 228.429688 321.550781 228.59375 C 321.402344 228.757812 321.289062 228.945312 321.214844 229.152344 C 321.136719 229.363281 321.105469 229.578125 321.113281 229.800781 C 321.113281 230.765625 319.011719 234.648438 316.445312 238.433594 C 313.878906 242.214844 312.003906 247.042969 312.28125 249.15625 C 312.558594 251.269531 311.03125 255.226562 308.890625 257.953125 C 306.746094 260.675781 304.246094 262.90625 303.332031 262.90625 C 302.421875 262.90625 299.648438 266.1875 297.175781 270.195312 C 294.703125 274.203125 292.0625 277.511719 291.304688 277.535156 C 290.546875 277.5625 289.929688 279.132812 289.929688 281.027344 C 289.929688 282.921875 288.691406 285.5 287.179688 286.757812 C 285.664062 288.015625 284.425781 291.152344 284.425781 293.730469 C 284.425781 296.3125 283.515625 301.371094 282.402344 304.972656 C 281.289062 308.578125 278.839844 315.550781 276.960938 320.472656 C 274.40625 327.152344 274.023438 330.324219 275.445312 332.980469 C 276.882812 335.667969 276.589844 337.703125 274.246094 341.28125 C 271.820312 344.984375 271.425781 348.066406 272.441406 355.375 C 273.160156 360.523438 273.664062 366.949219 273.5625 369.65625 C 273.460938 372.367188 274.214844 375.097656 275.234375 375.730469 C 276.253906 376.359375 277.089844 378.066406 277.089844 379.519531 C 277.089844 379.871094 277.019531 380.207031 276.886719 380.53125 C 276.75 380.851562 276.558594 381.136719 276.3125 381.386719 C 276.066406 381.632812 275.78125 381.824219 275.457031 381.960938 C 275.132812 382.09375 274.796875 382.160156 274.445312 382.164062 C 272.992188 382.164062 271.332031 381.402344 270.757812 380.46875 C 270.179688 379.539062 268.804688 374.378906 267.695312 369.003906 C 266.585938 363.628906 265.765625 357.289062 265.875 354.917969 C 265.984375 352.546875 264.371094 348.21875 262.292969 345.296875 C 260.214844 342.378906 259.09375 339.046875 259.804688 337.898438 C 260.515625 336.746094 261.265625 333.070312 261.46875 329.730469 C 261.671875 326.386719 261.1875 322.601562 260.394531 321.320312 C 259.605469 320.039062 259.734375 318.050781 260.683594 316.90625 C 261.746094 315.625 261.765625 312.773438 260.734375 309.503906 C 259.628906 305.820312 258.734375 302.082031 258.046875 298.296875 C 257.488281 295.054688 257.828125 291.910156 258.804688 291.308594 C 259.78125 290.707031 260.578125 288.246094 260.578125 285.839844 C 260.578125 283.4375 259.75 280.960938 258.738281 280.332031 C 257.726562 279.707031 257.417969 276.976562 258.058594 274.261719 C 258.695312 271.546875 259.9375 268.542969 260.816406 267.585938 C 261.695312 266.628906 262.414062 264.355469 262.414062 262.539062 C 262.414062 260.726562 261.242188 259.238281 259.8125 259.238281 C 258.382812 259.238281 255.90625 259.738281 254.308594 260.351562 C 252.714844 260.964844 251.40625 263.476562 251.40625 265.929688 C 251.40625 268.386719 249.550781 272.910156 247.28125 275.988281 C 244.152344 280.226562 243.089844 284.308594 242.902344 292.882812 C 242.761719 299.101562 242.496094 309.128906 242.3125 315.167969 C 242.125 321.261719 241.011719 326.75 239.8125 327.5 C 238.164062 328.523438 238.195312 329.726562 239.941406 332.546875 C 241.203125 334.582031 242.234375 338.320312 242.234375 340.859375 C 242.234375 343.394531 243.113281 345.46875 244.183594 345.46875 C 245.257812 345.46875 245.953125 346.914062 245.726562 348.679688 C 245.503906 350.445312 245.976562 354.367188 246.78125 357.394531 C 247.585938 360.421875 249.140625 364.035156 250.242188 365.421875 C 251.339844 366.808594 251.980469 370.527344 251.667969 373.679688 C 251.355469 376.832031 250.394531 380.144531 249.539062 381.035156 C 248.671875 381.9375 249.269531 384.632812 250.882812 387.09375 C 252.785156 390 253.164062 392.148438 251.984375 393.332031 C 250.800781 394.511719 251.976562 398.90625 255.390625 406.078125 C 259.5625 414.84375 261.457031 417.023438 264.890625 417.023438 C 267.25 417.023438 270.601562 418.59375 272.339844 420.515625 C 274.078125 422.433594 275.269531 425.117188 274.992188 426.476562 C 274.710938 427.835938 275.527344 430.832031 276.800781 433.136719 C 278.964844 437.054688 278.828125 437.253906 274.703125 436.21875 C 270.972656 435.28125 269.804688 436.140625 267.117188 441.804688 C 264.121094 448.121094 264.117188 448.699219 267.074219 451.964844 C 268.800781 453.871094 270.210938 457.617188 270.210938 460.289062 C 270.210938 462.957031 269.074219 465.867188 267.6875 466.75 C 266.300781 467.628906 264.1875 468 262.992188 467.5625 C 262.699219 467.460938 262.398438 467.414062 262.089844 467.429688 C 261.78125 467.445312 261.484375 467.519531 261.203125 467.648438 C 260.921875 467.777344 260.675781 467.957031 260.46875 468.183594 C 260.257812 468.410156 260.097656 468.667969 259.984375 468.960938 C 259.53125 470.164062 259.585938 467.648438 260.109375 463.371094 C 260.628906 459.089844 260.238281 454.550781 259.238281 453.277344 C 258.238281 452.007812 256.824219 448.5 256.101562 445.480469 C 255.378906 442.464844 253.984375 439.5 253 438.890625 C 252.019531 438.285156 250.863281 435.011719 250.433594 431.617188 C 250.003906 428.21875 247.160156 421.96875 244.109375 417.722656 C 241.0625 413.476562 238.566406 409.179688 238.566406 408.167969 C 238.566406 407.160156 235.492188 403.164062 231.734375 399.292969 C 227.972656 395.425781 224.667969 390.605469 224.390625 388.585938 C 224.113281 386.570312 222.964844 382.855469 221.84375 380.332031 C 220.726562 377.824219 219.488281 375.375 218.125 372.992188 C 217.023438 371.089844 216.105469 369.101562 215.371094 367.03125 C 214.777344 365.265625 212.53125 363.78125 210.378906 363.761719 C 208.226562 363.730469 204.816406 362.457031 202.796875 360.929688 C 200.78125 359.40625 199.128906 357.554688 199.128906 356.816406 C 199.128906 356.082031 196.445312 351.296875 193.167969 346.1875 C 189.886719 341.074219 187.207031 335.570312 187.207031 333.953125 C 187.207031 332.335938 186.378906 330.5 185.371094 329.878906 C 184.363281 329.253906 183.535156 327.226562 183.535156 325.371094 C 183.535156 323.515625 180.617188 319.4375 177.050781 316.304688 C 173.484375 313.175781 170.25 310.613281 169.867188 310.613281 C 169.476562 310.613281 167.855469 311.113281 166.261719 311.726562 C 164.664062 312.339844 163.359375 314.34375 163.359375 316.183594 C 163.359375 318.019531 164.792969 320.957031 166.542969 322.707031 C 168.292969 324.460938 170.757812 328.851562 172.015625 332.472656 C 173.277344 336.089844 174.320312 342.117188 174.335938 345.867188 C 174.355469 350.800781 175.886719 354.417969 179.867188 358.953125 C 182.894531 362.402344 185.371094 365.8125 185.371094 366.53125 C 185.371094 367.25 187.097656 370.265625 189.210938 373.234375 C 192.566406 377.941406 193.941406 378.523438 200.121094 377.8125 C 204.488281 377.3125 207.484375 377.8125 207.957031 379.125 C 208.382812 380.292969 208.34375 383.765625 207.875 386.839844 C 207.3125 390.550781 208.011719 393.246094 209.957031 394.863281 C 211.566406 396.199219 212.886719 398.058594 212.886719 398.992188 C 212.886719 399.925781 214.789062 402.507812 217.113281 404.730469 C 219.4375 406.953125 222.515625 412.484375 223.953125 417.027344 C 225.394531 421.566406 226.585938 427.746094 226.605469 430.753906 C 226.636719 435.140625 227.863281 436.800781 232.832031 439.160156 C 237.941406 441.589844 239.125 443.261719 239.617188 448.777344 C 239.949219 452.449219 241.085938 457.070312 242.144531 459.054688 C 243.203125 461.035156 244.070312 464.257812 244.070312 466.21875 C 244.070312 468.179688 245.21875 470.738281 246.621094 471.898438 C 248.019531 473.0625 249.597656 476.261719 250.125 479.003906 C 250.652344 481.75 250.246094 485.007812 249.222656 486.246094 C 248.199219 487.484375 246.910156 492.023438 246.355469 496.335938 C 245.800781 500.648438 245.480469 510.296875 245.640625 517.777344 C 245.847656 527.234375 245.09375 532.664062 243.164062 535.605469 C 241.640625 537.929688 240.527344 542.542969 240.691406 545.855469 C 240.851562 549.167969 239.242188 559.308594 237.113281 568.390625 C 234.984375 577.472656 233.882812 585.132812 234.671875 585.410156 C 235.457031 585.6875 235.8125 591.878906 235.464844 599.167969 C 235.117188 606.460938 234.578125 615.726562 234.265625 619.761719 C 233.953125 623.800781 234.945312 631.117188 236.476562 636.023438 C 239.125 644.519531 239.066406 645.308594 235.238281 652.535156 C 233.027344 656.710938 231.222656 661.859375 231.226562 663.972656 C 231.226562 666.089844 229.976562 670.335938 228.441406 673.410156 C 226.90625 676.488281 224.558594 679.910156 223.226562 681.019531 C 221.261719 682.648438 220.886719 681.328125 221.257812 674.074219 C 221.507812 669.148438 222.730469 663.214844 223.972656 660.894531 C 225.386719 658.25 226.078125 650.464844 225.824219 640.054688 C 225.601562 630.910156 225.207031 619.714844 224.949219 615.175781 C 224.691406 610.632812 223.878906 605.0625 223.144531 602.792969 C 222.410156 600.519531 221.136719 598.664062 220.3125 598.664062 C 219.488281 598.664062 217.421875 596.542969 215.726562 593.953125 C 213.34375 590.316406 213.125 588.660156 214.769531 586.679688 C 216.132812 585.035156 216.449219 581.285156 215.644531 576.25 C 214.957031 571.925781 212.390625 565.292969 209.945312 561.511719 C 207.5 557.726562 204.363281 554.628906 202.980469 554.628906 C 201.398438 554.628906 199.996094 557.734375 199.210938 562.976562 C 198.523438 567.566406 198.582031 573.964844 199.339844 577.195312 C 200.101562 580.425781 200.511719 584.566406 200.25 586.394531 C 199.988281 588.222656 201.144531 591.808594 202.8125 594.359375 C 204.726562 597.28125 205.652344 601.820312 205.3125 606.625 C 205.019531 610.824219 205.441406 616.1875 206.253906 618.546875 C 207.066406 620.902344 207.195312 625.703125 206.535156 629.214844 C 205.832031 632.960938 204.4375 635.292969 203.152344 634.871094 C 201.949219 634.472656 200.371094 630.496094 199.644531 626.035156 C 198.917969 621.578125 197.835938 614.625 197.234375 610.589844 C 196.640625 606.550781 195.242188 601.40625 194.136719 599.152344 C 193.027344 596.898438 190.601562 594.570312 188.746094 593.984375 C 186.890625 593.394531 185.371094 591.441406 185.371094 589.640625 C 185.371094 587.839844 184.464844 583.769531 183.359375 580.589844 C 181.820312 576.179688 180.253906 574.8125 176.742188 574.8125 C 173.585938 574.8125 172.441406 574.015625 173.109375 572.285156 C 173.640625 570.890625 173.109375 568.757812 171.929688 567.539062 C 170.273438 565.832031 171.5625 563.773438 177.574219 558.550781 C 181.863281 554.824219 185.371094 550.265625 185.371094 548.421875 C 185.371094 545.933594 186.203125 545.414062 188.582031 546.414062 C 190.917969 547.332031 193.308594 548.070312 195.757812 548.628906 C 198.367188 549.195312 200.34375 548.324219 201.546875 546.082031 C 202.550781 544.207031 203.558594 539.375 203.789062 535.347656 C 204.015625 531.320312 203.519531 526.375 202.675781 524.355469 C 201.835938 522.339844 199.707031 519.136719 197.949219 517.242188 C 196.1875 515.347656 193.527344 514.265625 192.03125 514.835938 C 190.375 515.472656 188.113281 514.039062 186.226562 511.164062 C 184.527344 508.570312 182.980469 504.1875 182.789062 501.421875 C 182.597656 498.660156 181.242188 495.230469 179.78125 493.796875 C 178.316406 492.367188 174.433594 491.011719 171.15625 490.777344 C 167.875 490.542969 165.191406 491.195312 165.191406 492.21875 C 165.1875 492.472656 165.132812 492.714844 165.03125 492.945312 C 164.925781 493.175781 164.785156 493.378906 164.601562 493.554688 C 164.417969 493.726562 164.210938 493.859375 163.976562 493.953125 C 163.742188 494.042969 163.496094 494.089844 163.242188 494.082031 C 162.171875 494.082031 161.453125 492.636719 161.648438 490.871094 C 161.84375 489.105469 161.390625 485.035156 160.640625 481.828125 C 159.894531 478.617188 157.515625 474.417969 155.359375 472.488281 C 153.203125 470.5625 146.792969 467.988281 141.117188 466.777344 C 132.132812 464.855469 129.941406 464.976562 124.148438 467.738281 C 120.492188 469.484375 117.5 471.496094 117.5 472.207031 C 117.5 472.921875 115.4375 474.023438 112.914062 474.65625 C 110.390625 475.289062 108.328125 476.933594 108.328125 478.308594 C 108.328125 479.6875 106.695312 481.238281 104.703125 481.761719 C 102.710938 482.28125 100.097656 484.863281 98.898438 487.5 C 97.367188 490.851562 97.21875 494.894531 98.394531 500.984375 C 99.613281 507.296875 101.203125 510.175781 104.199219 511.488281 C 106.46875 512.484375 108.328125 513.929688 108.328125 514.699219 C 108.328125 515.46875 110.753906 516.101562 113.722656 516.101562 C 116.691406 516.101562 119.632812 516.933594 120.261719 517.953125 C 120.890625 518.972656 118.992188 521.839844 116.039062 524.324219 C 112.214844 527.542969 110.144531 531.488281 108.851562 538.027344 C 107.3125 545.820312 107.503906 547.636719 110.121094 550.003906 C 111.816406 551.539062 114.101562 552.796875 115.199219 552.796875 C 115.789062 552.828125 116.328125 553.019531 116.804688 553.371094 C 117.285156 553.722656 117.628906 554.175781 117.839844 554.730469 C 118.28125 556.050781 124.085938 556.183594 136.128906 555.136719 L 153.777344 553.609375 L 158.792969 558.625 C 161.90625 561.738281 163.386719 564.753906 162.691406 566.566406 C 162.074219 568.175781 163.617188 574.53125 166.121094 580.691406 C 169.472656 588.941406 170.148438 592.523438 168.6875 594.285156 C 167.527344 595.683594 167.222656 599.1875 167.949219 602.714844 C 168.636719 606.035156 171.066406 611.652344 173.355469 615.199219 C 175.640625 618.742188 178.074219 623.421875 178.765625 625.59375 C 179.453125 627.765625 179.160156 630.074219 178.109375 630.722656 C 177.058594 631.371094 176.199219 633.117188 176.199219 634.605469 C 176.199219 636.089844 177.582031 637.835938 179.269531 638.484375 C 180.957031 639.132812 183.777344 641.101562 185.539062 642.863281 C 187.378906 644.703125 189.292969 650.515625 190.046875 656.546875 C 190.867188 663.113281 192.691406 668.363281 194.925781 670.601562 C 198.09375 673.765625 198.351562 675.730469 197.210938 687.890625 C 196.023438 700.566406 196.242188 701.945312 200.09375 706.042969 C 202.453125 708.554688 204.558594 713.492188 204.949219 717.410156 C 205.324219 721.222656 205.710938 729.429688 205.800781 735.648438 C 205.941406 745.300781 206.5 747.09375 209.601562 747.90625 C 212.488281 748.660156 213.019531 749.917969 212.1875 754.027344 C 211.613281 756.871094 210.664062 767.3125 210.074219 777.230469 C 209.386719 788.839844 209.699219 796.097656 210.957031 797.613281 C 212.03125 798.898438 214.960938 799.574219 217.46875 799.09375 L 217.46875 799.097656 C 220.953125 798.429688 222.550781 796.4375 224.226562 790.640625 C 225.433594 786.46875 226.636719 781.070312 226.902344 778.644531 C 227.167969 776.21875 227.789062 773.183594 228.28125 771.898438 C 228.773438 770.613281 228.289062 767.207031 227.207031 764.335938 C 225.570312 760.003906 225.941406 757.699219 229.363281 750.898438 C 231.632812 746.382812 234.714844 741.296875 236.210938 739.59375 C 237.703125 737.890625 238.410156 735.660156 237.773438 734.632812 C 237.140625 733.609375 237.140625 730.699219 237.773438 728.171875 C 238.410156 725.644531 241.734375 721.917969 245.167969 719.894531 C 248.601562 717.867188 251.410156 715 251.410156 713.519531 C 251.410156 712.039062 252.851562 710.355469 254.617188 709.773438 C 256.382812 709.191406 259.773438 704.210938 262.152344 698.707031 C 264.535156 693.199219 268.824219 686.242188 271.691406 683.242188 C 274.558594 680.242188 278.59375 676.878906 280.664062 675.773438 C 282.734375 674.664062 284.425781 672.167969 284.425781 670.21875 C 284.425781 668.273438 286.148438 665.757812 288.253906 664.628906 C 290.355469 663.503906 292.492188 662.996094 292.992188 663.496094 C 293.496094 664 295.597656 663.035156 297.660156 661.351562 C 299.722656 659.667969 303.378906 656.535156 305.789062 654.386719 C 308.511719 651.957031 309.734375 649.363281 309.027344 647.523438 C 308.3125 645.660156 309.078125 644.109375 311.085938 643.335938 C 312.839844 642.664062 318.304688 639.402344 323.226562 636.085938 C 328.148438 632.773438 334.882812 626.507812 338.1875 622.160156 C 342.558594 616.417969 345.703125 614.109375 349.710938 613.710938 C 354.066406 613.277344 356.535156 611.160156 361.472656 603.621094 C 365.824219 596.96875 367.570312 592.34375 367.226562 588.363281 C 366.941406 585.046875 367.9375 581.445312 369.605469 579.78125 C 371.183594 578.199219 372.476562 575.070312 372.476562 572.824219 C 372.476562 570.574219 374.539062 566.03125 377.0625 562.722656 C 379.585938 559.414062 381.660156 554.796875 381.675781 552.460938 C 381.691406 550.121094 382.3125 547.324219 383.050781 546.238281 C 383.792969 545.15625 385.722656 543.785156 387.339844 543.191406 C 389.195312 542.507812 390.714844 538.917969 391.464844 533.4375 C 392.121094 528.667969 392.652344 522.039062 392.652344 518.707031 C 392.652344 515.375 391.828125 512.136719 390.820312 511.515625 C 389.8125 510.890625 388.984375 509.601562 388.984375 508.652344 C 388.984375 507.703125 390.148438 506.925781 391.574219 506.925781 C 392.996094 506.925781 395.992188 503.148438 398.226562 498.527344 C 401.75 491.25 401.972656 489.53125 399.914062 485.683594 C 398.605469 483.242188 396.027344 481.242188 394.179688 481.242188 C 392.117188 481.242188 390.820312 479.910156 390.820312 477.796875 C 390.820312 475.902344 389.59375 473.332031 388.09375 472.085938 C 386.472656 470.742188 383.402344 470.316406 380.539062 471.035156 C 377.882812 471.699219 376.195312 472.726562 376.785156 473.316406 C 377.375 473.90625 375.203125 478.203125 371.957031 482.859375 C 368.710938 487.519531 365.4375 491.605469 364.679688 491.941406 C 363.921875 492.277344 363.304688 494.089844 363.304688 495.964844 C 363.304688 497.835938 362.480469 499.882812 361.46875 500.503906 C 360.460938 501.128906 359.636719 502.765625 359.636719 504.140625 C 359.636719 505.519531 357.285156 508.996094 354.414062 511.867188 C 351.542969 514.738281 346.945312 518.113281 344.199219 519.363281 C 341.453125 520.617188 335.820312 524.730469 331.6875 528.503906 C 327.550781 532.277344 320.855469 538.875 316.808594 543.164062 C 312.757812 547.449219 308.421875 550.960938 307.171875 550.960938 C 305.921875 550.960938 299.769531 556.089844 293.503906 562.359375 C 287.234375 568.625 280.058594 574.816406 277.554688 576.117188 C 275.050781 577.417969 272.367188 578.480469 271.589844 578.480469 C 270.816406 578.480469 269.738281 576.210938 269.195312 573.433594 C 268.523438 569.984375 269.3125 567.203125 271.691406 564.644531 C 274.820312 561.277344 274.980469 559.703125 273.277344 549.113281 C 272.234375 542.628906 270.5 536.265625 269.421875 534.96875 C 267.945312 533.1875 268.34375 532.613281 271.066406 532.613281 C 273.144531 532.613281 275.566406 530.636719 276.792969 527.9375 C 277.964844 525.367188 278.921875 522.105469 278.921875 520.691406 C 278.921875 519.277344 280.140625 517.433594 281.625 516.601562 C 283.203125 515.722656 285.488281 509.03125 287.109375 500.574219 C 288.636719 492.589844 290.71875 485.21875 291.742188 484.199219 C 292.761719 483.175781 293.597656 480.984375 293.597656 479.324219 C 293.597656 477.664062 292.007812 474.863281 290.0625 473.101562 C 287.949219 471.1875 285.109375 470.347656 283.019531 471.015625 C 281.089844 471.625 278.359375 474.28125 276.953125 476.910156 C 275.542969 479.542969 274.292969 482.625 274.171875 483.761719 C 274.046875 484.898438 273.320312 487.683594 272.554688 489.953125 C 271.785156 492.226562 270.429688 494.082031 269.539062 494.082031 C 268.648438 494.082031 267.917969 495.964844 267.917969 498.261719 C 267.917969 500.558594 266.785156 504.066406 265.402344 506.058594 C 264.015625 508.050781 262.300781 512.351562 261.589844 515.621094 C 260.878906 518.886719 259.699219 521.929688 258.972656 522.382812 C 258.242188 522.832031 257.644531 520.363281 257.644531 516.898438 C 257.644531 513.429688 258.304688 510.59375 259.113281 510.59375 C 259.917969 510.59375 260.578125 507.707031 260.578125 504.171875 C 260.578125 500.640625 261.347656 497.753906 262.285156 497.753906 C 263.226562 497.753906 264.289062 495.894531 264.652344 493.625 C 265.011719 491.355469 264.609375 487.820312 263.753906 485.773438 C 262.839844 483.589844 262.980469 479.988281 264.09375 477.058594 C 265.503906 473.347656 267.246094 472.066406 270.886719 472.066406 C 274.296875 472.066406 278.496094 469.347656 284.757812 463.085938 C 289.695312 458.148438 296.171875 453.097656 299.15625 451.863281 C 302.136719 450.632812 306.8125 450.042969 309.542969 450.566406 C 312.273438 451.089844 316.613281 450.648438 319.1875 449.589844 C 321.761719 448.527344 325.722656 447.84375 327.992188 448.070312 C 330.261719 448.296875 332.121094 447.527344 332.121094 446.367188 C 332.121094 444.972656 333.996094 444.664062 337.625 445.464844 C 342.449219 446.523438 343.527344 445.964844 346.339844 440.933594 C 349.007812 436.160156 350.316406 435.394531 354.132812 436.382812 C 357.25 437.117188 360.414062 437.542969 363.617188 437.660156 C 366.445312 437.710938 371.589844 435.308594 375.804688 431.972656 C 379.8125 428.796875 383.90625 426.199219 384.898438 426.199219 C 385.890625 426.199219 387.800781 424.875 389.144531 423.253906 C 390.488281 421.636719 393.527344 419.574219 395.898438 418.671875 C 398.273438 417.769531 399.722656 416.238281 399.121094 415.265625 C 398.523438 414.296875 399.085938 411.820312 400.371094 409.761719 C 401.65625 407.699219 405.605469 405.484375 409.144531 404.835938 C 412.6875 404.183594 416.109375 402.839844 416.753906 401.847656 C 417.398438 400.855469 418.882812 400.632812 420.054688 401.355469 C 421.539062 402.273438 421.609375 403.367188 420.28125 404.964844 C 418.90625 406.621094 419.515625 408.285156 422.484375 410.988281 C 424.742188 413.042969 429.066406 415.308594 432.09375 416.023438 C 435.726562 416.832031 439.394531 417.394531 443.097656 417.714844 C 446.269531 417.941406 448.40625 419.042969 448.144531 420.316406 C 447.890625 421.53125 448.867188 422.527344 450.308594 422.527344 C 451.753906 422.527344 453.195312 424.386719 453.519531 426.65625 C 453.910156 429.414062 456.804688 432.144531 462.234375 434.882812 C 466.707031 437.140625 471.015625 440.027344 471.808594 441.304688 C 472.972656 443.175781 473.984375 443.171875 477.015625 441.292969 C 480.273438 439.277344 481.421875 439.554688 485.546875 443.382812 C 488.167969 445.816406 493.222656 448.277344 496.773438 448.851562 C 500.324219 449.429688 504.792969 449.0625 506.703125 448.042969 C 509.125 446.746094 512.074219 446.871094 516.445312 448.453125 C 521.882812 450.417969 523.585938 450.253906 529.226562 447.214844 C 532.804688 445.285156 535.734375 442.699219 535.734375 441.464844 C 535.734375 440.230469 536.902344 438.558594 538.332031 437.753906 C 539.960938 436.832031 541.125 432.527344 541.457031 426.195312 C 541.980469 416.117188 541.980469 416.097656 536.566406 416.183594 C 532.039062 416.25 531.050781 417.097656 530.558594 421.335938 C 530.234375 424.128906 528.839844 426.84375 527.464844 427.371094 C 526.085938 427.902344 525.363281 429.386719 525.855469 430.671875 C 526.472656 432.273438 524.042969 433.382812 518.148438 434.191406 C 513.414062 434.835938 506.796875 435.367188 503.441406 435.367188 C 499.21875 435.367188 496.738281 434.238281 495.378906 431.699219 C 493.929688 428.992188 491.539062 428.027344 486.261719 428.027344 C 482.328125 428.027344 476.992188 427.222656 474.402344 426.238281 C 470.628906 424.804688 469.699219 423.21875 469.699219 418.230469 C 469.699219 414.695312 471.355469 409.902344 473.542969 407.125 C 476.054688 403.929688 476.90625 401.140625 476.003906 399.078125 C 475.242188 397.339844 474.78125 395.210938 474.976562 394.339844 C 475.175781 393.46875 473.863281 391.636719 472.058594 390.269531 C 470.253906 388.898438 465.660156 387.746094 461.84375 387.722656 C 456.878906 387.679688 454.570312 388.578125 453.71875 390.875 C 453.0625 392.640625 450.898438 395.53125 448.90625 397.296875 C 446.917969 399.0625 443.738281 400.507812 441.84375 400.507812 C 439.949219 400.507812 437.898438 399.207031 437.289062 397.617188 C 436.679688 396.027344 437.25 391.28125 438.558594 387.070312 C 439.867188 382.855469 441.246094 377.757812 441.621094 375.738281 C 441.996094 373.722656 442.480469 369.179688 442.699219 365.648438 C 443.050781 360.015625 443.671875 359.261719 447.746094 359.519531 C 451.144531 359.730469 453.238281 358.339844 455.527344 354.355469 C 457.25 351.355469 459.488281 349.414062 460.507812 350.042969 C 461.058594 350.429688 461.492188 350.914062 461.820312 351.5 C 462.144531 352.085938 462.324219 352.714844 462.359375 353.382812 C 462.359375 354.589844 464.628906 356.507812 467.40625 357.648438 C 470.179688 358.785156 473.800781 360.164062 475.453125 360.710938 C 477.1875 361.285156 479.433594 365.507812 480.761719 370.679688 C 482.023438 375.613281 484.40625 381.316406 486.050781 383.34375 C 487.695312 385.375 491.496094 387.523438 494.503906 388.117188 C 498.570312 388.921875 501.320312 388.109375 505.277344 384.9375 C 509.847656 381.273438 510.445312 379.777344 509.546875 374.234375 C 508.851562 369.957031 506.136719 365.59375 501.480469 361.265625 C 497.621094 357.675781 493.488281 354.710938 492.300781 354.6875 C 491.109375 354.664062 488.78125 353.285156 487.125 351.628906 C 485.46875 349.96875 481.121094 347.582031 477.460938 346.328125 C 472.703125 344.691406 469.621094 344.582031 466.640625 345.941406 C 463.644531 347.304688 461.730469 347.230469 459.859375 345.675781 C 457.816406 343.980469 456.628906 344.125 454.429688 346.324219 C 452.882812 347.871094 451.09375 349.136719 450.460938 349.136719 C 449.824219 349.136719 449.882812 348.199219 450.589844 347.054688 C 451.296875 345.910156 451.847656 340.546875 451.808594 335.136719 C 451.753906 327.171875 452.664062 324.164062 456.59375 319.332031 C 460.78125 314.171875 462.410156 313.441406 468.527344 313.941406 C 473.542969 314.355469 475.863281 315.503906 476.488281 317.886719 C 477.101562 320.234375 480.777344 322.117188 488.664062 324.128906 C 498.332031 326.59375 500.246094 326.636719 501.914062 324.433594 C 502.984375 323.019531 506 321.324219 508.613281 320.667969 C 512.101562 319.789062 513.851562 320.335938 515.183594 322.71875 C 515.734375 323.738281 516.027344 324.828125 516.058594 325.984375 C 516.089844 327.144531 515.855469 328.246094 515.359375 329.292969 C 514.460938 331.125 512.957031 334.171875 512.019531 336.058594 C 510.898438 338.320312 511.023438 340.199219 512.386719 341.5625 C 513.523438 342.703125 515.734375 343.683594 517.300781 343.726562 C 518.929688 343.777344 522.476562 348.671875 525.617188 355.191406 C 528.625 361.449219 531.273438 368.621094 531.5 371.128906 C 531.726562 373.636719 532.773438 375.976562 533.824219 376.328125 C 534.875 376.675781 535.734375 380.136719 535.734375 384.019531 C 535.734375 387.898438 536.972656 392.3125 538.484375 393.824219 C 540 395.339844 541.238281 398.289062 541.238281 400.378906 C 541.238281 402.46875 541.933594 404.179688 542.785156 404.179688 C 543.640625 404.179688 545.785156 402.578125 547.550781 400.625 C 549.320312 398.671875 550.269531 396.265625 549.660156 395.277344 C 549.050781 394.289062 549.589844 393.136719 550.855469 392.707031 C 552.632812 392.109375 552.550781 391.195312 550.488281 388.699219 C 548.554688 386.355469 547.796875 380.339844 547.738281 366.839844 C 547.65625 348.261719 547.640625 348.199219 541.695312 342.515625 C 537.910156 338.898438 535.734375 335.042969 535.734375 331.96875 C 535.734375 329.300781 535.003906 327.121094 534.109375 327.121094 C 533.214844 327.121094 531.925781 323.425781 531.25 318.90625 C 530.574219 314.390625 529.242188 310.214844 528.289062 309.625 C 527.339844 309.039062 526.5625 307.082031 526.5625 305.28125 C 526.5625 303.476562 528.308594 300.429688 530.441406 298.507812 C 532.574219 296.585938 535.175781 292.949219 536.222656 290.425781 C 537.269531 287.90625 537.945312 284.019531 537.726562 281.796875 C 537.507812 279.574219 539.035156 276.292969 541.117188 274.507812 C 543.199219 272.722656 544.90625 270.210938 544.90625 268.921875 Z M 273.421875 395.007812 C 272.414062 395.007812 271.585938 393.765625 271.585938 392.253906 C 271.585938 390.742188 272.414062 389.503906 273.421875 389.503906 C 274.429688 389.503906 275.253906 390.738281 275.253906 392.253906 C 275.253906 393.765625 274.429688 395.007812 273.421875 395.007812 Z M 129.421875 539.949219 C 127.910156 539.949219 126.671875 539.125 126.671875 538.113281 C 126.671875 537.105469 127.910156 536.277344 129.421875 536.277344 C 130.9375 536.277344 132.175781 537.105469 132.175781 538.113281 C 132.175781 539.125 130.9375 539.949219 129.421875 539.949219 Z M 146.78125 506.050781 C 145.726562 506.699219 145.359375 508.785156 145.960938 510.6875 C 146.808594 513.359375 145.894531 514.425781 141.910156 515.402344 C 139.078125 516.097656 136.1875 517.539062 135.488281 518.613281 C 134.765625 519.722656 133.328125 518.21875 132.144531 515.117188 C 130.648438 511.195312 130.613281 507.886719 132.019531 503.253906 C 133.09375 499.722656 134.183594 494.355469 134.449219 491.328125 C 134.804688 487.25 135.855469 485.824219 138.519531 485.824219 C 141.039062 485.824219 142.453125 487.472656 143.246094 491.328125 C 143.867188 494.355469 145.347656 498.640625 146.535156 500.851562 C 148.011719 503.59375 148.089844 505.242188 146.78125 506.050781 Z M 170.8125 516.097656 C 171.648438 516.097656 173.414062 518.371094 174.742188 521.144531 C 176.132812 524.054688 178.9375 526.445312 181.375 526.789062 C 183.695312 527.121094 186.019531 528.496094 186.539062 529.847656 C 187.054688 531.195312 187.210938 534.640625 186.882812 537.503906 C 186.304688 542.578125 186.222656 542.613281 183.535156 538.980469 C 182.023438 536.9375 178.320312 533.359375 175.308594 531.039062 C 171.644531 528.214844 169.742188 525.039062 169.5625 521.457031 C 169.414062 518.511719 169.976562 516.097656 170.8125 516.097656 Z M 366.089844 516.035156 C 367.617188 513.078125 371.359375 509.367188 374.402344 507.792969 C 377.445312 506.21875 379.5 504.226562 378.96875 503.367188 C 378.4375 502.507812 379.296875 501.304688 380.878906 500.699219 C 382.460938 500.089844 384.992188 500.832031 386.503906 502.339844 C 388.941406 504.78125 388.925781 505.089844 386.367188 505.089844 C 384.78125 505.089844 383.484375 505.914062 383.484375 506.925781 C 383.484375 507.933594 382.308594 508.757812 380.878906 508.757812 C 379.445312 508.757812 377.742188 511.171875 377.09375 514.117188 C 376.449219 517.066406 373.945312 521.605469 371.535156 524.210938 C 369.121094 526.8125 366.285156 528.941406 365.226562 528.941406 C 364.171875 528.941406 363.304688 527.246094 363.304688 525.179688 C 363.304688 523.109375 364.558594 518.996094 366.089844 516.035156 Z M 254.382812 533.070312 C 255.050781 530.292969 255.890625 527.679688 256.253906 527.257812 C 256.613281 526.839844 256.910156 529.109375 256.910156 532.304688 C 256.910156 535.5 256.070312 538.113281 255.042969 538.113281 C 253.933594 538.113281 253.664062 536.066406 254.382812 533.070312 Z M 315.429688 563.046875 C 317.464844 561.207031 319.375 560.636719 320.019531 561.683594 C 320.628906 562.664062 320.621094 564.785156 320.007812 566.386719 C 319.390625 567.992188 317.324219 569.304688 315.414062 569.304688 L 315.414062 569.308594 C 313.503906 569.308594 311.941406 568.605469 311.941406 567.753906 C 311.941406 566.902344 313.511719 564.785156 315.429688 563.046875 Z M 316.753906 591.320312 C 318.144531 591.320312 319.28125 590.28125 319.28125 589.011719 C 319.28125 587.738281 320.929688 585.671875 322.949219 584.410156 C 324.964844 583.148438 326.617188 580.511719 326.617188 578.550781 C 326.617188 576.589844 330.777344 570.824219 335.859375 565.738281 C 342.371094 559.226562 345.21875 554.859375 345.492188 550.976562 C 345.757812 547.171875 346.839844 545.460938 348.980469 545.457031 C 350.683594 545.457031 352.621094 546.332031 353.28125 547.398438 C 354.050781 548.636719 355.308594 548.214844 356.761719 546.230469 C 358.011719 544.515625 359.933594 543.433594 361.023438 543.824219 C 362.324219 544.289062 361.875 546.867188 359.730469 551.25 C 357.925781 554.941406 355.863281 560.308594 355.148438 563.175781 C 354.433594 566.042969 352.820312 569.625 351.566406 571.140625 C 350.3125 572.652344 348.410156 576.921875 347.339844 580.625 C 346.078125 584.992188 346.023438 587.980469 347.183594 589.140625 C 348.34375 590.300781 348.242188 592.285156 346.902344 594.796875 C 345.761719 596.921875 343.210938 598.660156 341.226562 598.660156 C 339.101562 598.660156 337.535156 599.976562 337.40625 601.871094 C 337.285156 603.707031 337.3125 605.542969 337.488281 607.375 C 337.65625 608.675781 335.804688 609.667969 333.210938 609.667969 C 330.695312 609.667969 327.972656 610.707031 327.167969 611.980469 C 326.359375 613.25 322.191406 616.566406 317.902344 619.34375 C 313.617188 622.125 310.109375 625.105469 310.109375 625.964844 C 310.109375 626.824219 306.792969 629.722656 302.738281 632.40625 L 295.367188 637.285156 L 299.796875 628.523438 C 302.234375 623.703125 305.15625 616.457031 306.289062 612.421875 C 307.421875 608.382812 308.578125 603.304688 308.855469 601.132812 C 309.132812 598.960938 310.457031 595.863281 311.792969 594.253906 C 313.132812 592.640625 315.363281 591.320312 316.753906 591.320312 Z M 258.980469 638.109375 C 258.910156 633.105469 259.171875 628.117188 259.757812 623.148438 C 260.5625 616.992188 261.617188 615.3125 265.25 614.398438 C 267.726562 613.777344 269.753906 612.046875 269.753906 610.550781 C 269.753906 609.058594 270.578125 607.835938 271.585938 607.835938 C 272.59375 607.835938 273.425781 606.390625 273.433594 604.625 C 273.441406 602.859375 275.070312 598.9375 277.058594 595.910156 C 279.148438 592.726562 282.804688 590.011719 285.730469 589.476562 C 288.726562 588.921875 292.296875 586.21875 294.488281 582.84375 C 296.519531 579.707031 300.605469 576.21875 303.566406 575.089844 C 306.527344 573.964844 309.402344 573.492188 309.960938 574.050781 C 310.515625 574.605469 309.050781 576.511719 306.699219 578.285156 C 304.21875 580.15625 302.675781 582.984375 303.019531 585.039062 C 303.378906 587.203125 300.957031 591.210938 296.769531 595.390625 C 293.007812 599.140625 289.929688 603.476562 289.929688 605.023438 C 289.929688 606.570312 289.105469 607.835938 288.097656 607.835938 C 287.085938 607.835938 286.261719 608.945312 286.261719 610.304688 C 286.261719 611.660156 284.652344 614.230469 282.683594 616.011719 C 280.457031 618.023438 279.242188 621.261719 279.472656 624.570312 C 279.695312 627.796875 281.105469 630.292969 283.050781 630.910156 C 284.816406 631.472656 286.261719 633.207031 286.261719 634.757812 C 286.261719 636.59375 285.234375 637.1875 283.339844 636.460938 C 281.390625 635.714844 280.097656 636.566406 279.457031 639.019531 C 278.929688 641.039062 277.765625 642.695312 276.875 642.695312 C 275.984375 642.695312 275.253906 643.929688 275.253906 645.445312 C 275.253906 646.960938 274.636719 648.203125 273.878906 648.210938 C 273.125 648.214844 271.058594 650.761719 269.292969 653.863281 C 267.527344 656.964844 266.082031 660.582031 266.082031 661.898438 C 266.082031 663.214844 264.859375 666.65625 263.363281 669.546875 C 261.867188 672.4375 258.773438 675.25 256.492188 675.800781 C 254.210938 676.347656 252.054688 678.414062 251.699219 680.386719 C 251.34375 682.359375 250.203125 684.800781 249.164062 685.808594 L 249.160156 685.808594 C 247.867188 687.066406 247.648438 684.230469 248.472656 676.800781 C 249.203125 670.207031 250.804688 665.132812 252.558594 663.851562 C 254.144531 662.691406 256.285156 658.074219 257.320312 653.59375 C 258.351562 649.113281 259.097656 642.144531 258.980469 638.109375 Z M 432.523438 224.152344 C 433.765625 222.898438 435.246094 222.332031 435.8125 222.898438 C 436.375 223.464844 435.359375 224.488281 433.546875 225.179688 C 430.933594 226.171875 430.722656 225.960938 432.523438 224.152344 Z M 284.53125 421.3125 L 284.53125 421.316406 C 283.691406 422.164062 282.488281 422.011719 281.851562 420.984375 C 281.703125 420.730469 281.605469 420.457031 281.566406 420.160156 C 281.523438 419.867188 281.539062 419.578125 281.613281 419.289062 C 281.6875 419.003906 281.8125 418.742188 281.988281 418.503906 C 282.167969 418.265625 282.382812 418.070312 282.636719 417.917969 C 283.703125 417.261719 284.074219 415.136719 283.460938 413.207031 C 282.71875 410.859375 283.21875 409.6875 284.96875 409.691406 C 286.90625 409.691406 287.394531 407.910156 286.835938 402.855469 C 286.421875 399.097656 284.761719 394.5625 283.144531 392.773438 C 280.421875 389.765625 280.566406 389.191406 285.066406 385.019531 C 287.742188 382.539062 289.929688 378.867188 289.929688 376.863281 C 289.929688 374.855469 290.796875 372.679688 291.851562 372.023438 C 293.183594 371.203125 293.15625 370.085938 291.765625 368.410156 C 290.316406 366.664062 290.3125 365.636719 291.75 364.75 C 292.898438 364.039062 293.199219 361.820312 292.457031 359.539062 C 291.75 357.355469 290.996094 350.613281 290.789062 344.558594 C 290.582031 338.503906 290.914062 332.726562 291.53125 331.714844 C 292.148438 330.707031 293.679688 326.992188 294.933594 323.460938 C 296.1875 319.925781 297.226562 315.652344 297.242188 313.957031 C 297.253906 312.265625 298.308594 309.785156 299.582031 308.453125 C 300.855469 307.121094 302.929688 303.699219 304.191406 300.847656 C 305.453125 297.996094 306.015625 294.902344 305.4375 293.964844 C 304.859375 293.035156 306.089844 292.269531 308.167969 292.269531 C 310.242188 292.269531 312.039062 291.238281 312.15625 289.976562 C 312.257812 288.101562 312.210938 286.230469 312.019531 284.363281 C 311.832031 282.535156 312.589844 279.941406 313.707031 278.59375 C 314.824219 277.246094 315.503906 275.042969 315.21875 273.699219 C 314.929688 272.355469 317.375 270.054688 320.65625 268.585938 C 323.933594 267.121094 326.617188 264.863281 326.617188 263.570312 C 326.617188 262.277344 328.289062 259.664062 330.335938 257.757812 C 332.460938 255.777344 333.585938 253.078125 332.960938 251.449219 C 332.363281 249.886719 332.753906 248.0625 333.828125 247.394531 C 334.90625 246.730469 335.789062 244.882812 335.789062 243.292969 C 335.789062 241.703125 337.894531 238.449219 340.46875 236.0625 C 343.042969 233.675781 346.296875 231.722656 347.699219 231.722656 C 349.101562 231.722656 350.757812 232.550781 351.382812 233.558594 C 352.003906 234.570312 354.019531 235.394531 355.863281 235.394531 C 357.71875 235.394531 359.65625 237.109375 360.214844 239.25 C 360.804688 241.496094 362.082031 242.574219 363.28125 241.832031 C 364.410156 241.132812 370.039062 240.183594 375.785156 239.722656 C 381.53125 239.261719 387.886719 238.65625 389.902344 238.375 C 391.921875 238.097656 394.386719 236.074219 395.382812 233.878906 C 396.378906 231.683594 398.648438 229.890625 400.425781 229.890625 C 402.207031 229.890625 403.660156 228.902344 403.660156 227.6875 C 403.660156 226.011719 404.175781 225.996094 405.785156 227.601562 C 407.394531 229.210938 407.351562 230.398438 405.605469 232.5 C 403.71875 234.773438 404.015625 236.175781 407.257812 240.296875 C 410.984375 245.039062 411.019531 245.386719 407.875 246.550781 C 406.042969 247.230469 401.871094 250.132812 398.601562 253.003906 C 395.332031 255.871094 392.65625 259.1875 392.65625 260.367188 C 392.65625 261.550781 391.417969 262.992188 389.902344 263.570312 C 388.390625 264.152344 387.152344 265.890625 387.152344 267.4375 C 387.152344 269.109375 385.484375 270.261719 383.023438 270.304688 C 380.753906 270.335938 377.410156 272.40625 375.589844 274.90625 C 373.769531 277.40625 372.71875 280.160156 373.253906 281.027344 C 373.789062 281.890625 372.59375 284.074219 370.597656 285.882812 C 368.605469 287.6875 366.972656 289.9375 366.972656 290.886719 C 366.972656 291.835938 363.464844 296.304688 359.175781 300.820312 C 354.890625 305.335938 351.660156 310.375 352.003906 312.019531 C 352.347656 313.664062 351.207031 316.042969 349.476562 317.3125 C 349.011719 317.640625 348.609375 318.027344 348.265625 318.476562 C 347.921875 318.929688 347.652344 319.417969 347.457031 319.949219 C 347.261719 320.480469 347.148438 321.03125 347.117188 321.59375 C 347.085938 322.160156 347.140625 322.71875 347.277344 323.265625 C 347.988281 325.976562 347.222656 327.0625 344.320312 327.480469 C 342.171875 327.789062 339.324219 330.3125 338 333.085938 C 336.671875 335.859375 334.808594 338.128906 333.855469 338.128906 C 332.902344 338.128906 332.121094 340.09375 332.121094 342.492188 C 332.121094 344.890625 331.089844 347.667969 329.828125 348.660156 C 328.566406 349.65625 325.265625 351.011719 322.488281 351.671875 C 319.3125 352.433594 317.445312 354.09375 317.445312 356.167969 C 317.445312 357.976562 315.792969 361.226562 313.777344 363.394531 C 311.757812 365.558594 310.109375 369.019531 310.109375 371.078125 C 310.109375 373.140625 308.921875 374.824219 307.476562 374.824219 C 306.027344 374.824219 303.796875 377.714844 302.519531 381.246094 C 301.242188 384.777344 299.539062 387.667969 298.734375 387.667969 C 297.925781 387.667969 297.265625 388.699219 297.261719 389.960938 C 297.257812 391.222656 294.734375 398.445312 291.65625 406.015625 C 288.574219 413.582031 285.371094 420.464844 284.53125 421.3125 Z M 434.660156 319.640625 C 431.828125 323.46875 430.765625 327.722656 430.660156 335.621094 C 430.582031 341.542969 431.542969 348.289062 432.800781 350.617188 C 434.828125 354.375 434.488281 355.453125 429.738281 360.3125 C 426.296875 363.832031 423.609375 369.28125 422.195312 375.605469 C 420.046875 385.21875 419.785156 385.511719 410.453125 388.910156 C 401.726562 392.089844 400.929688 392.859375 401.140625 397.902344 C 401.332031 402.574219 400.644531 403.476562 396.632812 403.808594 C 394.03125 404.023438 391.078125 405.023438 390.074219 406.023438 C 389.074219 407.027344 385.996094 407.847656 383.242188 407.847656 C 379.8125 407.847656 377.039062 409.519531 374.460938 413.144531 C 373.261719 414.820312 371.796875 416.214844 370.066406 417.332031 C 368.335938 418.449219 366.460938 419.210938 364.441406 419.613281 C 361.003906 420.257812 355.421875 423.207031 352.035156 426.164062 C 347.433594 430.183594 344.71875 431.265625 341.292969 430.449219 C 338.769531 429.847656 335.246094 428.609375 333.457031 427.691406 C 331.671875 426.777344 329.410156 426.523438 328.429688 427.128906 C 327.449219 427.734375 325.257812 427.453125 323.5625 426.503906 C 321.472656 425.335938 317.90625 425.726562 312.539062 427.71875 C 308.175781 429.335938 304.605469 431.304688 304.605469 432.097656 C 304.605469 432.886719 302.1875 433.535156 299.234375 433.535156 C 296.277344 433.535156 292.5625 434.832031 290.976562 436.417969 L 290.980469 436.417969 C 289.394531 438.003906 288.097656 438.480469 288.097656 437.476562 C 288.097656 436.472656 290.039062 433.316406 292.410156 430.464844 C 294.78125 427.613281 296.363281 424.246094 295.925781 422.984375 C 295.488281 421.726562 296.4375 420.191406 298.03125 419.578125 C 299.628906 418.964844 300.9375 417.726562 300.9375 416.828125 C 300.9375 415.925781 302.589844 413.535156 304.605469 411.519531 C 306.625 409.5 308.273438 406.285156 308.273438 404.375 C 308.273438 402.464844 309.40625 400.46875 310.789062 399.9375 C 312.171875 399.40625 313.890625 396.632812 314.609375 393.777344 C 315.324219 390.921875 317.492188 387.109375 319.429688 385.300781 C 321.367188 383.496094 322.949219 380.8125 322.949219 379.339844 C 322.949219 377.867188 323.886719 376.660156 325.03125 376.660156 C 326.175781 376.660156 329.066406 374.550781 331.453125 371.976562 C 333.839844 369.402344 335.816406 366.71875 335.847656 366.015625 C 335.878906 365.308594 337.902344 362.460938 340.347656 359.6875 C 342.789062 356.910156 345.589844 354.640625 346.574219 354.640625 C 347.558594 354.640625 351.320312 349.777344 354.933594 343.828125 C 358.542969 337.882812 363.960938 331.070312 366.972656 328.691406 C 369.980469 326.3125 372.453125 322.953125 372.460938 321.222656 C 372.46875 319.492188 374.046875 317.234375 375.96875 316.207031 C 378.359375 314.925781 379.863281 311.417969 380.734375 305.082031 C 381.878906 296.773438 382.644531 295.5625 388.25 293.222656 C 391.679688 291.789062 394.488281 289.800781 394.488281 288.808594 C 394.488281 287.816406 396.050781 286.507812 397.960938 285.902344 C 399.871094 285.296875 401.945312 283.382812 402.574219 281.652344 C 403.207031 279.917969 404.851562 276.570312 406.234375 274.210938 C 407.648438 271.796875 409.253906 270.738281 409.902344 271.789062 C 410.539062 272.816406 410.28125 274.140625 409.328125 274.730469 C 408.320312 275.351562 408.226562 277.976562 409.101562 281.03125 C 409.925781 283.910156 409.941406 287.332031 409.132812 288.640625 C 408.328125 289.945312 408.621094 292.703125 409.789062 294.765625 C 410.960938 296.828125 413.566406 299.96875 415.585938 301.75 C 417.601562 303.527344 420.609375 305 422.265625 305.042969 C 423.925781 305.078125 425.707031 306.210938 426.222656 307.5625 C 426.835938 309.167969 429.15625 309.734375 432.839844 309.191406 C 437.230469 308.546875 438.515625 309.042969 438.515625 311.390625 C 438.515625 313.0625 436.777344 316.773438 434.660156 319.640625 Z M 495.839844 314.132812 L 495.839844 314.136719 C 494.578125 313.910156 493.355469 313.554688 492.167969 313.066406 C 490.90625 312.554688 489.875 310.554688 489.875 308.625 C 489.875 306.6875 490.347656 305.105469 490.925781 305.105469 C 491.5 305.105469 493.152344 306.285156 494.59375 307.726562 C 496.035156 309.167969 497.214844 311.234375 497.214844 312.316406 C 497.214844 313.394531 496.59375 314.222656 495.839844 314.132812 Z M 538.136719 251.898438 C 537.941406 259.46875 537.632812 267.5 537.445312 269.753906 C 537.261719 272.007812 536.335938 273.371094 535.390625 272.785156 C 534.445312 272.199219 532.03125 273.203125 530.03125 275.015625 C 528.03125 276.828125 525.136719 280.953125 523.605469 284.1875 C 522.070312 287.417969 519.425781 290.558594 517.726562 291.164062 C 516.03125 291.769531 513.691406 292.71875 512.53125 293.273438 C 511.371094 293.828125 510.109375 293.347656 509.726562 292.199219 C 509.316406 290.972656 503.605469 289.902344 495.785156 289.59375 C 488.5 289.304688 482.539062 289.652344 482.539062 290.359375 C 482.539062 291.058594 474.492188 291.355469 464.652344 290.996094 C 454.816406 290.632812 442.675781 290.152344 437.675781 289.925781 C 428.777344 289.519531 428.542969 289.359375 426.933594 282.589844 C 425.742188 277.570312 425.941406 274.882812 427.667969 272.804688 C 428.976562 271.230469 430.160156 268.371094 430.304688 266.449219 C 430.445312 264.53125 432.046875 261.316406 433.867188 259.304688 C 436.261719 256.660156 436.890625 253.914062 436.148438 249.347656 C 435.359375 244.46875 435.976562 242.273438 438.871094 239.671875 C 440.929688 237.820312 443.230469 234.65625 443.980469 232.644531 C 444.808594 230.425781 444.332031 227.433594 442.765625 225.039062 C 441.183594 222.628906 440.648438 219.234375 441.386719 216.292969 C 442.050781 213.648438 443.945312 210.699219 445.597656 209.734375 C 447.394531 208.683594 447.679688 207.964844 446.308594 207.921875 C 445.050781 207.890625 444.015625 207.042969 444.015625 206.03125 C 444.015625 205.019531 445.058594 204.195312 446.335938 204.195312 C 447.613281 204.195312 450.078125 200.910156 451.816406 196.898438 C 453.90625 192.070312 456.503906 189.214844 459.480469 188.46875 C 462.230469 187.777344 464.203125 185.796875 464.546875 183.382812 C 465.0625 179.773438 466.128906 179.449219 476.914062 179.6875 C 487.367188 179.917969 489.113281 180.496094 492.199219 184.734375 C 494.523438 187.921875 497.394531 189.515625 500.820312 189.519531 C 504.320312 189.519531 506.246094 190.625 506.867188 192.992188 C 507.410156 195.070312 510.125 196.984375 513.628906 197.753906 C 517.636719 198.632812 519.171875 199.859375 518.488281 201.632812 C 517.941406 203.0625 518.28125 206.300781 519.246094 208.832031 C 520.207031 211.363281 523.074219 214.226562 525.613281 215.191406 C 528.390625 216.246094 530.234375 218.390625 530.234375 220.558594 C 530.234375 222.542969 532.089844 227.3125 534.359375 231.152344 C 537.773438 236.933594 538.425781 240.515625 538.136719 251.898438 Z M 538.136719 251.898438 " fill-opacity="1" fill-rule="nonzero"/><path fill="#262626" d="M 163.074219 326.367188 C 162.859375 326.511719 162.679688 326.6875 162.535156 326.902344 C 162.390625 327.117188 162.292969 327.351562 162.242188 327.605469 C 162.1875 327.859375 162.1875 328.109375 162.234375 328.363281 C 162.285156 328.617188 162.378906 328.855469 162.519531 329.070312 C 163.101562 330.007812 164.351562 330.777344 165.300781 330.777344 L 165.300781 330.773438 C 166.25 330.773438 167.027344 330.085938 167.027344 329.242188 C 166.953125 328.203125 166.5625 327.304688 165.855469 326.539062 C 165.210938 325.902344 163.957031 325.820312 163.074219 326.367188 Z M 163.074219 326.367188 " fill-opacity="1" fill-rule="nonzero"/><path fill="#262626" d="M 163.585938 362.65625 L 158.425781 361.625 L 161.691406 355.21875 C 163.484375 351.695312 164.539062 347.726562 164.03125 346.402344 C 163.523438 345.078125 164.027344 343.421875 165.15625 342.726562 C 166.652344 341.800781 166.625 340.761719 165.054688 338.871094 C 163.511719 337.011719 163.484375 336.28125 164.964844 336.28125 C 166.097656 336.28125 167.027344 335.457031 167.027344 334.445312 C 167.03125 334.210938 166.992188 333.984375 166.910156 333.761719 C 166.828125 333.542969 166.703125 333.347656 166.542969 333.175781 C 166.382812 333.003906 166.195312 332.867188 165.980469 332.769531 C 165.765625 332.671875 165.542969 332.621094 165.304688 332.609375 C 164.359375 332.609375 160.675781 335.695312 157.121094 339.46875 C 151.980469 344.914062 150.1875 345.859375 148.382812 344.054688 C 147.132812 342.804688 144.984375 341.785156 143.605469 341.785156 C 142.226562 341.785156 138.355469 343.878906 134.996094 346.441406 C 131.640625 349 128.472656 352.714844 127.953125 354.695312 C 127.300781 357.195312 128.585938 359.414062 132.167969 361.964844 C 135.003906 363.984375 138.640625 365.636719 140.25 365.636719 C 141.859375 365.636719 143.179688 366.261719 143.179688 367.03125 C 143.179688 367.796875 144.90625 369.5 147.019531 370.820312 C 149.128906 372.140625 154.289062 373.621094 158.484375 374.109375 C 163.679688 374.714844 167.847656 376.722656 171.574219 380.40625 C 174.582031 383.382812 177.648438 385.816406 178.390625 385.816406 L 178.390625 385.820312 C 179.128906 385.820312 180.609375 384.1875 181.675781 382.191406 C 183.316406 379.128906 182.460938 377.40625 176.179688 371.125 C 172.089844 367.035156 166.421875 363.222656 163.585938 362.65625 Z M 163.585938 362.65625 " fill-opacity="1" fill-rule="nonzero"/><path fill="#262626" d="M 351.351562 123.464844 C 352.636719 123.464844 354.703125 124.695312 355.953125 126.195312 C 357.199219 127.699219 358.863281 128.53125 359.652344 128.042969 C 360.441406 127.554688 361.558594 128.386719 362.136719 129.898438 C 362.71875 131.40625 363.609375 132.636719 364.117188 132.636719 C 364.628906 132.636719 366.378906 130.058594 368.007812 126.910156 C 368.984375 125.066406 369.628906 123.113281 369.933594 121.050781 C 370.238281 118.984375 370.191406 116.929688 369.785156 114.882812 C 369.136719 111.417969 367.011719 106.988281 365.0625 105.042969 C 362.167969 102.144531 360.734375 101.863281 357.167969 103.488281 C 354.769531 104.578125 351.476562 108.269531 349.847656 111.683594 C 348.21875 115.101562 347.367188 119.148438 347.953125 120.679688 C 348.542969 122.210938 350.070312 123.464844 351.351562 123.464844 Z M 351.351562 123.464844 " fill-opacity="1" fill-rule="nonzero"/><path fill="#262626" d="M 365.75 159.949219 C 362.96875 163.300781 362.070312 166.253906 362.761719 169.761719 C 363.476562 173.375 362.898438 175.109375 360.710938 175.949219 C 359.035156 176.589844 356.570312 179.285156 355.234375 181.9375 C 353.898438 184.589844 353.171875 187.792969 353.621094 189.054688 C 354.070312 190.316406 355.917969 191.347656 357.730469 191.347656 C 359.539062 191.347656 362.050781 190.113281 363.304688 188.597656 C 364.5625 187.085938 367.039062 185.84375 368.808594 185.84375 C 370.578125 185.84375 373.054688 187.082031 374.3125 188.597656 C 375.566406 190.109375 378.003906 191.347656 379.726562 191.347656 C 381.449219 191.347656 385.304688 187.839844 388.289062 183.550781 C 391.332031 179.175781 393.4375 174.035156 393.085938 171.839844 C 392.738281 169.6875 389.546875 164.527344 385.992188 160.375 C 380.527344 153.984375 378.773438 153 374.628906 153.984375 C 371.929688 154.625 367.9375 157.308594 365.75 159.949219 Z M 365.75 159.949219 " fill-opacity="1" fill-rule="nonzero"/><path fill="#262626" d="M 161.722656 156.601562 C 163.027344 157.40625 164.007812 161.011719 163.90625 164.609375 C 163.804688 168.210938 164.589844 171.15625 165.648438 171.15625 C 166.710938 171.15625 171.425781 175.171875 176.132812 180.082031 C 180.839844 184.992188 188.972656 190.972656 194.203125 193.371094 C 199.433594 195.773438 203.714844 198.363281 203.714844 199.125 C 203.714844 199.886719 205.398438 200.511719 207.460938 200.511719 C 209.519531 200.511719 213.011719 202.195312 215.21875 204.25 C 217.425781 206.308594 221.109375 208.464844 223.398438 209.039062 C 225.6875 209.613281 227.5625 211.179688 227.5625 212.519531 C 227.5625 214.28125 229.339844 214.671875 233.949219 213.921875 C 238.8125 213.132812 240.609375 213.601562 241.484375 215.871094 C 242.113281 217.515625 243.832031 218.859375 245.296875 218.859375 C 247.445312 218.859375 247.855469 221.519531 247.394531 232.46875 C 246.878906 244.769531 247.25 246.535156 251.269531 250.816406 C 253.714844 253.421875 256.8125 255.554688 258.148438 255.554688 C 259.589844 255.554688 260.582031 253.460938 260.582031 250.417969 C 260.582031 247.589844 261.300781 244.492188 262.179688 243.535156 C 263.058594 242.578125 264.21875 239.730469 264.757812 237.207031 C 265.292969 234.683594 265.132812 231.027344 264.398438 229.085938 C 263.535156 226.816406 264.578125 222.550781 267.316406 217.160156 C 269.65625 212.542969 271.574219 206.574219 271.578125 203.894531 C 271.585938 199.769531 272.839844 198.597656 279.742188 196.242188 C 284.226562 194.714844 289.507812 193.886719 291.476562 194.402344 C 293.449219 194.917969 296.863281 194.375 299.066406 193.191406 C 302.300781 191.460938 303.695312 191.605469 306.277344 193.945312 C 308.195312 195.679688 312.785156 196.84375 317.707031 196.84375 C 324.449219 196.84375 326.878906 195.851562 331.203125 191.339844 C 334.105469 188.3125 337.871094 185.835938 339.578125 185.835938 C 341.28125 185.835938 343.484375 184.800781 344.472656 183.539062 C 345.460938 182.277344 346.761719 179.226562 347.371094 176.757812 C 347.980469 174.285156 347.644531 171.261719 346.628906 170.039062 C 345.382812 168.539062 345.410156 167.425781 346.707031 166.625 C 347.765625 165.972656 348.628906 162.59375 348.628906 159.121094 C 348.628906 154.734375 347.789062 152.808594 345.878906 152.808594 C 345.523438 152.816406 345.175781 152.753906 344.84375 152.625 C 344.511719 152.496094 344.21875 152.308594 343.960938 152.0625 C 343.703125 151.816406 343.503906 151.53125 343.359375 151.203125 C 343.214844 150.878906 343.136719 150.539062 343.125 150.179688 C 343.125 148.734375 344.851562 147.003906 346.960938 146.335938 C 349.8125 145.429688 350.527344 144.101562 349.738281 141.164062 C 349.15625 138.992188 348.667969 136.246094 348.65625 135.0625 C 348.640625 133.878906 346.089844 130.371094 342.984375 127.265625 C 339.882812 124.160156 335.445312 121.617188 333.125 121.617188 C 329.871094 121.617188 328.648438 120.3125 327.765625 115.886719 C 327.132812 112.730469 326.617188 108.507812 326.617188 106.5 C 326.617188 104.492188 322.390625 98.816406 317.222656 93.886719 C 312.054688 88.957031 306.441406 84.925781 304.75 84.925781 C 303.054688 84.925781 300.683594 83.9375 299.476562 82.730469 C 298.273438 81.527344 292.328125 80.261719 286.269531 79.921875 C 279.53125 79.546875 275.253906 80.039062 275.253906 81.199219 C 275.253906 82.238281 274.5625 83.089844 273.714844 83.089844 C 272.867188 83.089844 272.125 80.40625 272.058594 77.125 C 271.996094 73.847656 271.570312 69.925781 271.117188 68.410156 C 270.664062 66.898438 268.882812 62.472656 267.160156 58.578125 C 265.441406 54.683594 262.429688 51.078125 260.472656 50.566406 C 258.511719 50.058594 256.910156 49.09375 256.910156 48.425781 C 256.910156 47.75 253.402344 47.507812 249.113281 47.859375 C 242.351562 48.417969 240.03125 49.882812 231.617188 58.914062 C 226.28125 64.644531 221.4375 71.574219 220.851562 74.320312 C 220.265625 77.066406 218.234375 79.804688 216.335938 80.40625 C 214.4375 81.011719 211.980469 83.183594 210.882812 85.242188 C 209.78125 87.296875 209.402344 91.75 210.035156 95.136719 C 210.933594 99.910156 210.351562 102.136719 207.453125 105.035156 C 204.820312 107.667969 201.320312 108.773438 195.628906 108.773438 C 188.421875 108.773438 186.882812 109.578125 181.414062 116.183594 C 178.042969 120.257812 174.332031 127.292969 173.167969 131.8125 C 172.007812 136.335938 171.484375 141.671875 172.007812 143.671875 C 172.757812 146.539062 172.039062 147.304688 168.597656 147.304688 C 166.136719 147.304688 163.179688 149.007812 161.796875 151.21875 C 159.804688 154.410156 159.792969 155.40625 161.722656 156.601562 Z M 226.367188 93.089844 C 226.789062 86.480469 227.4375 80.800781 227.804688 80.472656 C 228.175781 80.140625 232.195312 78.027344 236.734375 75.769531 C 241.273438 73.515625 246.769531 70.039062 248.941406 68.046875 C 252.007812 65.242188 253.6875 64.851562 256.414062 66.3125 C 259.304688 67.859375 259.878906 70.03125 259.625 78.476562 C 259.457031 84.128906 258.363281 89.710938 257.199219 90.875 C 256.03125 92.042969 255.078125 94.382812 255.078125 96.074219 C 255.078125 97.769531 253.878906 100.148438 252.414062 101.363281 C 250.949219 102.585938 248.128906 103.0625 246.148438 102.433594 C 244.167969 101.800781 242.015625 102.148438 241.367188 103.199219 C 240.71875 104.25 236.90625 105.105469 232.894531 105.105469 L 225.605469 105.105469 Z M 177.3125 156.976562 C 177.976562 154.179688 180.058594 150.1875 181.945312 148.105469 C 183.828125 146.019531 185.371094 142.566406 185.371094 140.433594 C 185.371094 138.28125 187.640625 134.933594 190.449219 132.929688 C 193.246094 130.941406 198.554688 129.050781 202.253906 128.734375 C 207.710938 128.261719 209.6875 129.058594 212.765625 132.972656 C 214.851562 135.625 216.554688 139.007812 216.554688 140.488281 C 216.554688 141.972656 215.316406 144.214844 213.804688 145.46875 C 212.292969 146.726562 211.054688 148.820312 211.054688 150.128906 C 211.054688 151.433594 211.671875 152.777344 212.429688 153.113281 C 213.1875 153.453125 215.355469 156.777344 217.25 160.507812 C 219.699219 165.328125 222.085938 167.453125 225.503906 167.855469 C 228.148438 168.167969 232.53125 167.640625 235.238281 166.679688 C 237.945312 165.722656 240.589844 163.304688 241.109375 161.308594 C 241.632812 159.3125 241.640625 156.996094 241.125 156.160156 C 240.609375 155.324219 238.378906 154.628906 236.167969 154.613281 C 233.957031 154.601562 231.074219 153.90625 229.761719 153.074219 C 228.453125 152.242188 227.253906 149.570312 227.101562 147.140625 C 226.945312 144.707031 226.066406 142.195312 225.144531 141.558594 C 224.148438 140.875 224.320312 137.878906 225.5625 134.222656 C 227.097656 129.691406 229.84375 126.9375 235.84375 123.910156 C 240.347656 121.640625 246.445312 119.785156 249.398438 119.785156 C 252.984375 119.785156 256.492188 117.957031 259.960938 114.28125 C 262.816406 111.253906 266.730469 108.773438 268.65625 108.773438 C 270.582031 108.773438 275.039062 106.578125 278.5625 103.890625 C 283.617188 100.035156 286.976562 99.011719 294.515625 99.027344 C 299.765625 99.042969 304.976562 99.613281 306.089844 100.300781 C 307.203125 100.992188 307.707031 102.613281 307.210938 103.910156 C 306.714844 105.203125 308.195312 108.316406 310.5 110.828125 C 312.808594 113.335938 314.988281 117.410156 315.34375 119.882812 C 315.699219 122.351562 316.636719 124.785156 317.421875 125.289062 C 318.210938 125.792969 319.167969 127.851562 319.550781 129.859375 C 319.929688 131.871094 322.710938 134.660156 325.722656 136.0625 C 328.738281 137.460938 333.0625 140.292969 335.332031 142.359375 C 338.003906 144.785156 339.457031 148.222656 339.457031 152.101562 C 339.457031 155.398438 340.253906 158.589844 341.226562 159.191406 C 342.265625 159.832031 341.433594 163.289062 339.207031 167.554688 C 337.085938 171.628906 334.066406 174.824219 332.34375 174.824219 C 330.652344 174.824219 327.636719 175.96875 325.644531 177.363281 C 322.992188 179.222656 316.113281 179.832031 300.015625 179.660156 L 278.007812 179.414062 L 278.007812 167.945312 C 278.007812 157.710938 278.402344 156.472656 281.675781 156.449219 C 283.695312 156.4375 286.25 155.816406 287.359375 155.074219 C 288.46875 154.332031 289.886719 150.425781 290.511719 146.390625 C 291.136719 142.351562 291.054688 138.226562 290.328125 137.214844 C 289.605469 136.207031 286.144531 133.867188 282.640625 132.019531 C 279.136719 130.167969 276.011719 129.4375 275.695312 130.386719 C 275.371094 131.367188 272.101562 131.558594 268.140625 130.835938 C 263.003906 129.894531 260.234375 130.328125 257.660156 132.46875 C 255.734375 134.070312 252.714844 138.503906 250.949219 142.324219 C 249.183594 146.140625 247.738281 150.519531 247.738281 152.050781 C 247.738281 153.582031 250.214844 155.699219 253.242188 156.753906 C 256.269531 157.808594 258.746094 159.367188 258.746094 160.21875 C 258.746094 161.070312 257.921875 162.277344 256.914062 162.902344 C 255.902344 163.523438 255.078125 166.429688 255.078125 169.359375 C 255.078125 172.472656 253.410156 176.238281 251.0625 178.425781 C 248.855469 180.480469 245.234375 182.164062 243.019531 182.164062 C 240.800781 182.164062 236.769531 183.316406 234.054688 184.726562 C 231.097656 186.261719 229.921875 187.78125 231.125 188.519531 C 232.226562 189.203125 232.648438 190.527344 232.070312 191.464844 C 231.488281 192.402344 230.445312 193.070312 229.746094 192.960938 C 229.050781 192.84375 226.832031 192.332031 224.820312 191.820312 C 222.804688 191.3125 219.289062 189.421875 217 187.625 C 214.714844 185.824219 211.339844 184.75 209.5 185.230469 C 207.550781 185.738281 203.726562 184.0625 200.347656 181.21875 C 197.15625 178.53125 194.542969 174.851562 194.542969 173.042969 C 194.542969 171.230469 193.101562 169.265625 191.332031 168.671875 C 189.25 167.929688 187.261719 166.984375 185.371094 165.839844 C 183.472656 164.691406 181.46875 163.769531 179.363281 163.074219 C 176.851562 162.292969 176.382812 160.90625 177.3125 156.976562 Z M 177.3125 156.976562 " fill-opacity="1" fill-rule="nonzero"/></svg>