<svg xmlns="http://www.w3.org/2000/svg" xmlns:xlink="http://www.w3.org/1999/xlink" width="794" zoomAndPan="magnify" viewBox="0 0 594.95996 842.24997" height="1123" preserveAspectRatio="xMidYMid meet" version="1.0"><defs><clipPath id="41e423ea2e"><path d="M 6.695312 193.773438 L 588.179688 193.773438 L 588.179688 647.121094 L 6.695312 647.121094 Z M 6.695312 193.773438 " clip-rule="nonzero"/></clipPath></defs><g clip-path="url(#41e423ea2e)"><path fill="#ead5bb" d="M 106.96875 647.121094 L 26.140625 608.914062 L 6.792969 561.117188 L 69.28125 494.933594 L 153.355469 462.839844 L 130.484375 408.402344 L 68.703125 356.089844 L 45.34375 322.433594 L 49.417969 278.226562 L 82.566406 283.164062 L 92.699219 301.316406 L 171.839844 302.375 L 194.890625 274.125 L 255.914062 270.28125 L 290.527344 212.875 L 344.945312 197.519531 L 369.246094 204.648438 L 383.792969 225.460938 L 451.066406 193.773438 L 500.53125 219.085938 L 526.4375 300.941406 L 569.242188 337.296875 L 588.089844 413.390625 L 545.148438 437.171875 L 538.019531 461.476562 L 557.351562 516.789062 L 511.214844 588.316406 L 437.347656 600.976562 L 392.789062 557.546875 L 326.792969 609.578125 L 241.535156 576.226562 L 192.378906 612.820312 Z M 106.96875 647.121094 " fill-opacity="1" fill-rule="nonzero"/></g><path fill="#262626" d="M 167.359375 428.949219 C 167.050781 427.707031 165.714844 426.953125 164.390625 427.28125 C 163.066406 427.609375 162.402344 429.566406 162.914062 431.628906 C 163.425781 433.691406 164.757812 434.445312 165.882812 433.296875 C 167.003906 432.152344 167.667969 430.195312 167.359375 428.949219 Z M 167.359375 428.949219 " fill-opacity="1" fill-rule="nonzero"/><path fill="#262626" d="M 511.664062 330.015625 C 511.652344 333.886719 513.304688 338.550781 515.414062 340.59375 C 517.488281 342.605469 522.792969 351.75 527.203125 360.914062 C 531.613281 370.082031 535.90625 380.34375 536.742188 383.71875 C 537.578125 387.09375 537.289062 391.476562 536.09375 393.457031 C 534.898438 395.441406 529.769531 398.089844 524.699219 399.34375 C 518.789062 400.808594 514.671875 400.476562 513.234375 398.414062 C 512.003906 396.648438 507.402344 394.398438 503.007812 393.417969 C 498.617188 392.433594 493.59375 392.628906 491.847656 393.84375 C 490.101562 395.0625 488.664062 399.03125 488.652344 402.664062 C 488.640625 406.832031 490.738281 411.464844 494.339844 415.230469 C 497.484375 418.507812 500.699219 423.808594 501.492188 427.011719 C 502.285156 430.214844 501.914062 433.085938 500.667969 433.394531 C 499.421875 433.703125 497.371094 432.945312 496.109375 431.710938 C 494.84375 430.472656 489.777344 428.839844 484.839844 428.078125 C 479.910156 427.320312 475.644531 425.773438 475.363281 424.644531 C 475.085938 423.519531 476.339844 419.304688 478.152344 415.285156 C 479.96875 411.265625 480.808594 405.382812 480.027344 402.214844 C 479.242188 399.050781 479.515625 394.9375 480.636719 393.082031 C 481.945312 390.914062 481.105469 385.90625 478.296875 379.101562 C 475.886719 373.269531 472.636719 368.835938 471.066406 369.246094 C 469.496094 369.65625 467.089844 371.167969 465.710938 372.613281 C 464.335938 374.054688 463.929688 379.898438 464.808594 385.605469 C 465.878906 392.539062 464.972656 398.011719 462.082031 402.121094 C 459.703125 405.496094 455.394531 408.847656 452.507812 409.5625 C 449.621094 410.277344 446.257812 410.257812 445.03125 409.515625 C 443.804688 408.777344 438.011719 408.203125 432.15625 408.234375 C 422.449219 408.292969 421.257812 407.574219 418.632812 400.09375 C 417.050781 395.582031 414.28125 391.371094 412.484375 390.734375 C 410.683594 390.101562 406.796875 390.824219 403.839844 392.34375 C 398.816406 394.921875 398.445312 394.5625 398.09375 386.765625 C 397.886719 382.183594 397.441406 376.488281 397.09375 374.117188 C 396.75 371.742188 397.320312 369.589844 398.359375 369.332031 C 399.398438 369.074219 399.753906 366.867188 399.148438 364.425781 C 398.546875 361.980469 395.753906 358.824219 392.945312 357.410156 C 390.132812 355.996094 385.460938 354.535156 382.5625 354.171875 C 379.664062 353.804688 374.019531 353.996094 370.023438 354.589844 C 366.03125 355.1875 360.757812 357.09375 358.304688 358.832031 C 355.855469 360.566406 351.984375 364.902344 349.707031 368.464844 C 347.015625 372.675781 346.265625 377.773438 347.5625 383.015625 C 348.835938 388.160156 351.074219 391.277344 353.734375 391.609375 C 356.027344 391.894531 357.792969 393.570312 357.652344 395.332031 C 357.511719 397.09375 361.792969 401.011719 367.164062 404.039062 C 374.828125 408.363281 378.445312 408.921875 384 406.652344 C 387.890625 405.058594 391.425781 402.652344 391.859375 401.300781 C 392.296875 399.949219 393.691406 398.585938 394.960938 398.273438 C 396.238281 397.957031 397.257812 400.625 397.25 404.238281 C 397.234375 409.59375 398.984375 411.585938 406.933594 415.25 C 412.273438 417.710938 420.046875 421.847656 424.210938 424.445312 C 428.375 427.039062 434.894531 429.167969 438.699219 429.175781 C 443.351562 429.1875 447.730469 431.800781 452.054688 437.15625 C 455.59375 441.535156 461.085938 446.199219 464.257812 447.523438 C 467.429688 448.84375 472.355469 449.960938 475.203125 450.003906 C 478.050781 450.046875 482.046875 452.21875 484.082031 454.828125 C 486.113281 457.4375 489 459.273438 490.492188 458.902344 C 491.984375 458.535156 496.496094 459.714844 500.519531 461.53125 C 504.539062 463.34375 509.550781 464.402344 511.660156 463.878906 C 514.597656 463.152344 514.867188 460.402344 512.816406 452.128906 C 510.398438 442.359375 510.675781 441.25 515.699219 440.558594 C 520.484375 439.894531 521.171875 438.164062 520.648438 428.042969 C 520.113281 417.738281 520.851562 415.960938 526.644531 413.589844 C 530.28125 412.101562 533.503906 411.886719 533.804688 413.109375 C 534.128906 414.410156 540.425781 413.105469 548.988281 409.957031 C 558.304688 406.53125 564.40625 402.839844 565.777344 399.796875 C 567.007812 397.070312 566.679688 392.59375 565.007812 389.359375 L 565.011719 389.359375 C 563.398438 386.25 560.859375 381.128906 559.359375 377.988281 C 557.863281 374.847656 554.746094 365.796875 552.433594 357.871094 C 549.609375 348.203125 546.140625 341.652344 541.882812 337.949219 C 538.390625 334.914062 532.738281 330.429688 529.324219 327.976562 C 525.910156 325.527344 520.542969 323.425781 517.398438 323.308594 C 512.71875 323.132812 511.679688 324.347656 511.664062 330.015625 Z M 511.664062 330.015625 " fill-opacity="1" fill-rule="nonzero"/><path fill="#262626" d="M 335.140625 217.117188 C 329.382812 219.25 324.210938 222.425781 323.652344 224.167969 C 323.089844 225.914062 320.640625 227.09375 318.199219 226.789062 C 315.761719 226.484375 312.464844 228 310.875 230.15625 C 309.285156 232.3125 307.128906 233.5625 306.082031 232.929688 C 305.035156 232.296875 303.023438 233.347656 301.613281 235.261719 C 300.203125 237.175781 299.257812 239.589844 299.515625 240.625 C 299.769531 241.660156 304.230469 240.832031 309.429688 238.777344 C 314.625 236.726562 323.746094 235.261719 329.695312 235.523438 C 335.644531 235.789062 342.347656 236.4375 344.582031 236.964844 C 347.722656 237.707031 349.3125 241.457031 351.550781 253.414062 C 353.148438 261.933594 353.457031 271.75 352.234375 275.226562 C 350.605469 279.875 351.25 284.640625 354.660156 293.199219 C 358.582031 303.035156 358.789062 306.457031 355.980469 315.199219 C 354.152344 320.890625 351.203125 327.960938 349.421875 330.914062 C 347.644531 333.863281 345.230469 336.515625 344.0625 336.804688 C 342.894531 337.09375 341.90625 339.882812 341.863281 343.003906 C 341.820312 346.199219 343.265625 349.171875 345.164062 349.808594 C 347.023438 350.433594 350.441406 350.488281 352.761719 349.933594 C 355.085938 349.382812 356.738281 347.949219 356.441406 346.75 C 356.144531 345.546875 358.246094 344.597656 361.113281 344.632812 C 364.054688 344.671875 367.792969 342.515625 369.707031 339.671875 C 371.570312 336.90625 375.765625 334.285156 379.035156 333.847656 C 383.988281 333.1875 384.714844 331.988281 383.394531 326.652344 C 382.519531 323.128906 382.417969 319.226562 383.160156 317.980469 C 383.90625 316.734375 383.636719 312.167969 382.5625 307.828125 C 381.074219 301.808594 381.941406 298.601562 386.230469 294.273438 C 389.324219 291.15625 394.480469 282.988281 397.699219 276.121094 C 400.914062 269.25 404.757812 263.261719 406.242188 262.808594 C 407.722656 262.355469 410.074219 258.742188 411.464844 254.773438 C 412.914062 250.636719 415.558594 247.757812 417.667969 248.019531 C 419.691406 248.269531 423.96875 246.160156 427.171875 243.328125 C 430.378906 240.496094 436.789062 237.238281 441.421875 236.089844 C 446.636719 234.796875 453.042969 235.476562 458.246094 237.875 C 462.867188 240.003906 467.675781 244.21875 468.929688 247.238281 C 470.1875 250.257812 472.449219 253.125 473.957031 253.609375 C 475.679688 254.160156 476.039062 257.445312 474.925781 262.421875 C 473.554688 268.570312 474.277344 272.601562 478.132812 280.3125 C 480.871094 285.789062 482.835938 290.472656 482.496094 290.722656 C 482.15625 290.96875 478.183594 294.390625 473.667969 298.320312 C 469.148438 302.246094 465.925781 306.265625 466.507812 307.25 C 467.085938 308.234375 466.503906 312.054688 465.210938 315.738281 C 463.652344 320.1875 463.847656 322.753906 465.789062 323.378906 C 467.738281 324.003906 467.910156 325.921875 466.296875 329.132812 C 464.96875 331.78125 463.585938 336.320312 463.222656 339.21875 C 462.863281 342.117188 463.160156 348.652344 463.882812 353.742188 C 464.847656 360.519531 466.109375 362.769531 468.601562 362.152344 C 470.476562 361.6875 472.746094 362.480469 473.652344 363.910156 C 474.601562 365.410156 476.398438 365.382812 477.902344 363.84375 C 479.492188 362.21875 479.429688 360.53125 477.738281 359.511719 C 476.046875 358.492188 476.144531 352.191406 477.980469 343.339844 C 479.636719 335.363281 483.570312 325.542969 486.722656 321.511719 C 489.871094 317.484375 493.582031 313.890625 494.960938 313.523438 C 496.339844 313.15625 499.53125 310.46875 502.050781 307.546875 C 504.757812 304.40625 506.242188 298.9375 505.683594 294.164062 C 505.160156 289.726562 505.195312 285.335938 505.75 284.410156 C 506.324219 283.480469 505.632812 281.21875 504.238281 279.386719 L 504.222656 279.390625 C 502.824219 277.554688 500.324219 272.941406 498.667969 269.140625 C 497.011719 265.335938 494.066406 261.46875 492.121094 260.542969 C 490.175781 259.621094 487.402344 256.570312 485.957031 253.769531 C 484.183594 250.324219 484.429688 248.398438 486.714844 247.832031 C 488.574219 247.371094 489.546875 244.757812 488.867188 242.023438 C 488.191406 239.289062 485.996094 235.234375 483.992188 233.011719 C 481.988281 230.792969 478.761719 229.367188 476.824219 229.847656 C 474.886719 230.328125 473.042969 229.695312 472.734375 228.4375 C 472.421875 227.179688 467.640625 224.191406 462.109375 221.792969 C 452.925781 217.816406 450.285156 217.898438 431.855469 222.730469 C 416.226562 226.828125 410.132812 229.558594 404.882812 234.832031 C 401.152344 238.574219 396.882812 242.523438 395.394531 243.609375 C 393.910156 244.691406 391.140625 246.523438 389.25 247.675781 C 387.355469 248.832031 384.878906 255.070312 383.746094 261.539062 C 382.609375 268.007812 380.121094 274.386719 378.214844 275.71875 C 376.308594 277.046875 373.554688 277.75 372.089844 277.277344 C 370.453125 276.753906 370.164062 274.910156 371.335938 272.480469 C 372.382812 270.308594 371.816406 264.164062 370.082031 258.824219 C 368.128906 252.839844 367.910156 248.097656 369.507812 246.464844 C 371.5625 244.367188 370.695312 241.828125 365.332031 234.234375 C 361.613281 228.964844 355.648438 222.085938 352.085938 218.945312 C 346.207031 213.761719 344.644531 213.59375 335.140625 217.117188 Z M 335.140625 217.117188 " fill-opacity="1" fill-rule="nonzero"/><path fill="#262626" d="M 390.253906 488.839844 C 388.652344 489.238281 386.523438 491.246094 385.53125 493.300781 C 384.242188 495.957031 385.214844 499.828125 388.871094 506.664062 C 392.605469 513.632812 393.6875 518.078125 392.808594 522.800781 C 391.714844 528.652344 392.410156 529.515625 399.632812 531.238281 C 404.054688 532.296875 408.453125 532.777344 409.40625 532.308594 C 410.359375 531.839844 412.753906 535.242188 414.734375 539.867188 C 416.710938 544.496094 420.828125 549.964844 423.886719 552.023438 C 426.941406 554.078125 430.898438 555.402344 432.679688 554.960938 C 434.460938 554.519531 436.171875 555.191406 436.484375 556.449219 C 436.796875 557.710938 441.855469 561.542969 447.726562 564.96875 C 454.917969 569.160156 461.816406 570.925781 468.859375 570.363281 C 474.609375 569.90625 480.949219 570.296875 482.945312 571.226562 C 484.945312 572.160156 490.339844 571.320312 494.933594 569.355469 C 499.527344 567.394531 504.859375 563.449219 506.785156 560.585938 C 508.710938 557.722656 509.792969 553.382812 509.191406 550.941406 C 508.585938 548.5 509 546.277344 510.109375 546 C 511.222656 545.726562 512.695312 542.484375 513.382812 538.804688 C 514.070312 535.121094 515.941406 531.785156 517.539062 531.390625 C 519.136719 530.992188 522.367188 527.695312 524.71875 524.058594 C 527.066406 520.421875 528.46875 515.339844 527.832031 512.765625 C 527.195312 510.195312 528.914062 503.761719 531.652344 498.476562 C 535.347656 491.332031 535.902344 487.28125 533.796875 482.714844 L 533.792969 482.714844 C 532.199219 479.253906 528.527344 476.289062 525.394531 475.929688 C 522.332031 475.582031 518.601562 476.148438 517.101562 477.1875 C 515.605469 478.226562 514.839844 480.9375 515.402344 483.214844 C 515.964844 485.488281 514.347656 490.5625 511.808594 494.492188 C 509.269531 498.421875 507.558594 503.109375 508.003906 504.910156 C 508.449219 506.710938 503.511719 516.925781 497.03125 527.617188 C 488.796875 541.199219 483.425781 547.5 479.195312 548.550781 C 475.863281 549.375 470.40625 549.398438 467.070312 548.601562 C 463.730469 547.804688 459.136719 546.601562 456.863281 545.925781 C 454.589844 545.253906 449.511719 544.167969 445.578125 543.511719 C 441.148438 542.777344 434.847656 538.175781 429.035156 531.425781 C 423.871094 525.433594 418.464844 517.511719 417.023438 513.824219 C 415.578125 510.140625 414.078125 506.628906 413.660156 506.03125 C 413.007812 504.9375 412.453125 503.800781 411.996094 502.609375 C 411.492188 501.332031 407.050781 497.546875 402.125 494.199219 C 397.203125 490.855469 391.859375 488.441406 390.253906 488.839844 Z M 390.253906 488.839844 " fill-opacity="1" fill-rule="nonzero"/><path fill="#262626" d="M 333.039062 577.085938 C 336.191406 576.304688 339.171875 574.417969 339.664062 572.890625 C 340.152344 571.363281 343.144531 569.472656 346.3125 568.6875 C 349.484375 567.902344 354.773438 565.179688 358.074219 562.636719 C 361.375 560.089844 364.480469 557 364.976562 555.765625 C 365.472656 554.535156 368.566406 553.167969 371.851562 552.734375 C 376.007812 552.183594 378.140625 550.164062 378.863281 546.097656 C 379.4375 542.878906 381.71875 539.261719 383.933594 538.054688 C 386.667969 536.566406 387.390625 533.558594 386.179688 528.675781 C 384.472656 521.78125 383.785156 521.53125 369.4375 522.511719 C 359.910156 523.164062 351.851562 525.046875 347.253906 527.695312 C 343.277344 529.980469 336.773438 536.125 332.792969 541.347656 C 328.816406 546.566406 324.414062 551.125 323.011719 551.472656 C 322.679688 551.546875 322.375 551.6875 322.097656 551.882812 C 321.820312 552.082031 321.589844 552.324219 321.40625 552.613281 C 321.226562 552.902344 321.105469 553.214844 321.046875 553.550781 C 320.992188 553.886719 321 554.222656 321.074219 554.554688 C 321.410156 555.90625 318.871094 557.1875 315.4375 557.40625 C 312 557.625 307.921875 557.394531 306.371094 556.894531 C 304.816406 556.398438 303.144531 554.359375 302.652344 552.363281 C 302.15625 550.363281 297.015625 546.058594 291.222656 542.796875 C 281.007812 537.039062 280.652344 536.464844 279.152344 523.605469 C 278.304688 516.316406 278.144531 508.105469 278.796875 505.359375 C 279.585938 502.023438 278.390625 498.199219 275.203125 493.878906 C 271.941406 489.457031 271.09375 486.695312 272.539062 485.191406 C 273.707031 483.980469 274.5625 480.882812 274.4375 478.3125 C 274.257812 474.519531 276.789062 472.867188 287.898438 469.535156 C 295.421875 467.273438 302.753906 463.832031 304.191406 461.886719 C 305.886719 459.585938 308.992188 458.589844 313.039062 459.042969 C 316.785156 459.460938 321.921875 458.070312 325.914062 455.550781 C 329.5625 453.246094 335.195312 447.257812 338.425781 442.246094 C 341.714844 437.148438 345.976562 433.339844 348.105469 433.605469 C 350.199219 433.867188 352.828125 432.5625 353.945312 430.710938 C 355.0625 428.855469 355.523438 425.515625 354.972656 423.285156 C 354.417969 421.054688 350.566406 418.039062 346.40625 416.578125 C 339.007812 413.984375 338.578125 414.15625 326.046875 424.605469 C 314.386719 434.328125 311.191406 435.753906 290.285156 440.554688 C 277.65625 443.453125 264.460938 445.859375 260.957031 445.898438 C 257.457031 445.9375 250.917969 446.292969 246.429688 446.683594 C 241.9375 447.074219 234.675781 446.535156 230.296875 445.488281 C 225.914062 444.441406 221.070312 443.894531 219.535156 444.277344 C 217.996094 444.65625 210.039062 441.757812 201.847656 437.835938 C 193.65625 433.914062 186.0625 429.945312 184.972656 429.019531 C 183.882812 428.097656 180.609375 428.316406 177.695312 429.511719 C 174.78125 430.707031 171.691406 433.832031 170.832031 436.460938 C 169.59375 440.226562 170.652344 442.003906 175.851562 444.894531 C 179.476562 446.90625 182.742188 449.78125 183.113281 451.28125 C 183.484375 452.777344 186.070312 455.542969 188.859375 457.421875 C 191.652344 459.296875 196.257812 460.257812 199.097656 459.554688 C 201.933594 458.851562 205.511719 458.925781 207.042969 459.71875 C 208.574219 460.511719 215.332031 461.769531 222.066406 462.507812 C 228.796875 463.25 235.292969 465.269531 236.496094 466.992188 C 238.136719 469.347656 240 469.214844 243.96875 466.464844 C 248.214844 463.523438 250.5 463.609375 255.601562 466.90625 C 261.214844 470.535156 261.929688 472.199219 261.726562 481.183594 C 261.601562 486.777344 259.75 495.445312 257.617188 500.449219 C 255.480469 505.449219 253.992188 510.582031 254.304688 511.851562 C 254.621094 513.121094 253.433594 515.167969 251.671875 516.394531 C 249.082031 518.203125 249.640625 522.324219 254.578125 537.9375 C 258.035156 548.871094 262.78125 559.191406 265.523438 561.734375 C 268.1875 564.207031 276.398438 568.582031 283.773438 571.460938 C 291.148438 574.335938 300.742188 579.046875 305.09375 581.925781 C 309.875 585.089844 315.476562 586.542969 319.261719 585.605469 C 322.707031 584.753906 325.925781 582.808594 326.414062 581.28125 C 326.90625 579.753906 329.886719 577.867188 333.039062 577.085938 Z M 333.039062 577.085938 " fill-opacity="1" fill-rule="nonzero"/><path fill="#262626" d="M 283.132812 259.226562 C 283.089844 262.578125 284.378906 263.644531 287.523438 262.867188 C 289.976562 262.257812 291.632812 260.371094 291.210938 258.667969 C 290.789062 256.964844 291.453125 255.324219 292.675781 255.019531 C 293.902344 254.71875 294.859375 252.46875 294.800781 250.027344 C 294.738281 247.582031 294.289062 245.238281 293.785156 244.824219 L 293.777344 244.824219 C 293.273438 244.40625 290.6875 246.410156 288.027344 249.277344 C 285.371094 252.140625 283.167969 256.621094 283.132812 259.226562 Z M 283.132812 259.226562 " fill-opacity="1" fill-rule="nonzero"/><path fill="#262626" d="M 154.765625 370.503906 C 154.292969 367.71875 154.484375 364.570312 155.191406 363.5 C 155.898438 362.429688 157.292969 362.789062 158.292969 364.296875 C 159.292969 365.804688 162.847656 366.359375 166.191406 365.53125 C 171.421875 364.238281 171.863281 363.265625 169.355469 358.546875 C 167.472656 355.007812 167.472656 351.359375 169.351562 348.242188 C 171.597656 344.519531 173.183594 343.863281 176.304688 345.371094 C 178.53125 346.445312 180.101562 346.328125 179.800781 345.105469 L 179.789062 345.109375 C 179.484375 343.886719 177.527344 341.789062 175.441406 340.445312 C 172.398438 338.492188 172.1875 337.632812 174.375 336.152344 C 175.882812 335.136719 176.585938 332.175781 175.941406 329.578125 C 175.296875 326.976562 171.191406 322.875 166.820312 320.460938 C 162.449219 318.042969 157.261719 316.832031 155.296875 317.761719 C 153.332031 318.691406 149.226562 318.09375 146.171875 316.425781 C 143.121094 314.761719 135.011719 313.574219 128.15625 313.792969 C 121.296875 314.007812 111.457031 315.230469 106.292969 316.511719 C 101.125 317.789062 94.65625 320.613281 91.921875 322.78125 C 89.183594 324.953125 86.351562 330.117188 85.625 334.261719 C 84.601562 340.125 85.28125 343.019531 88.714844 347.351562 C 91.136719 350.40625 96.070312 353.945312 99.679688 355.207031 C 103.640625 356.597656 106.828125 359.875 107.71875 363.472656 C 108.53125 366.75 110.277344 369.164062 111.601562 368.835938 C 111.929688 368.761719 112.257812 368.753906 112.589844 368.8125 C 112.921875 368.871094 113.226562 368.988281 113.511719 369.167969 C 113.792969 369.347656 114.035156 369.574219 114.226562 369.847656 C 114.421875 370.121094 114.554688 370.421875 114.632812 370.746094 C 114.972656 372.125 117.886719 374.976562 121.113281 377.078125 C 125.445312 379.902344 130.703125 380.203125 141.296875 378.230469 C 154.316406 375.804688 155.542969 375.101562 154.765625 370.503906 Z M 136.210938 360.453125 C 133.101562 358.929688 128.582031 356.15625 126.167969 354.289062 C 122.375 351.351562 122.207031 350.105469 124.917969 345.054688 C 127.964844 339.375 127.878906 339.261719 121.660156 340.800781 C 118.148438 341.671875 115.058594 341.53125 114.800781 340.488281 C 114.542969 339.445312 118.804688 337.292969 124.273438 335.707031 C 129.890625 334.074219 139.804688 333.742188 147.070312 334.941406 C 159.277344 336.953125 160.046875 337.535156 162.238281 346.390625 C 164.027344 353.617188 163.605469 355.992188 160.375 356.917969 C 158.082031 357.578125 152.976562 359.265625 149.035156 360.667969 C 144.902344 362.140625 139.476562 362.050781 136.210938 360.453125 Z M 136.210938 360.453125 " fill-opacity="1" fill-rule="nonzero"/><path fill="#262626" d="M 77.660156 314.273438 L 77.660156 314.269531 C 77.25 312.613281 74.945312 308.773438 72.539062 305.734375 C 70.035156 302.578125 66.625 300.921875 64.574219 301.871094 C 62.605469 302.78125 61.164062 306.917969 61.375 311.0625 C 61.585938 315.210938 63.160156 320.265625 64.867188 322.300781 C 66.574219 324.335938 69.34375 325.660156 71.019531 325.246094 C 72.691406 324.832031 75.039062 322.871094 76.234375 320.890625 C 77.429688 318.910156 78.070312 315.929688 77.660156 314.273438 Z M 77.660156 314.273438 " fill-opacity="1" fill-rule="nonzero"/><path fill="#262626" d="M 187.179688 581.3125 C 188.894531 578.765625 191.300781 576.429688 192.527344 576.125 C 193.753906 575.820312 195.355469 572.265625 196.082031 568.222656 C 196.808594 564.179688 200.285156 558.144531 203.808594 554.8125 C 207.332031 551.484375 212.324219 548.234375 214.90625 547.59375 C 217.488281 546.957031 219.820312 544.652344 220.089844 542.480469 C 220.363281 540.304688 222.253906 538.113281 224.296875 537.605469 C 226.339844 537.101562 231.488281 530.53125 235.734375 523.011719 C 239.980469 515.488281 242.96875 507.363281 242.371094 504.953125 L 242.375 504.949219 C 241.777344 502.539062 239.292969 500.628906 236.851562 500.703125 C 234.414062 500.777344 230.472656 502.851562 228.101562 505.320312 C 225.730469 507.78125 218.644531 511.738281 212.359375 514.109375 C 201.304688 518.277344 200.804688 518.921875 196.9375 533.8125 C 194.109375 544.707031 191.058594 550.417969 186.492188 553.355469 C 182.941406 555.640625 177.832031 560.066406 175.132812 563.195312 C 172.433594 566.320312 168.304688 569.355469 165.949219 569.9375 C 163.597656 570.519531 161.902344 571.925781 162.183594 573.058594 C 162.464844 574.195312 155.867188 576.5625 147.523438 578.320312 C 136.808594 580.582031 129.492188 580.585938 122.625 578.339844 C 114.988281 575.839844 110.632812 576.007812 102.386719 579.128906 C 96.605469 581.3125 90.050781 582.492188 87.828125 581.75 C 85.238281 580.886719 93.480469 578.117188 110.707031 574.0625 C 129.453125 569.652344 139.261719 566.253906 142.992188 562.886719 C 146.777344 559.476562 149.289062 558.617188 151.542969 559.972656 C 153.792969 561.332031 156.527344 560.367188 160.832031 556.699219 C 164.1875 553.839844 168.507812 548.023438 170.429688 543.769531 L 173.921875 536.035156 L 164.792969 536.761719 C 159.773438 537.160156 154.113281 536.550781 152.21875 535.40625 C 150.320312 534.261719 146.410156 533.910156 143.527344 534.621094 C 140.644531 535.335938 137.3125 537.9375 136.121094 540.402344 C 134.648438 543.449219 130.015625 545.785156 121.652344 547.699219 C 114.882812 549.246094 107.59375 551.285156 105.453125 552.234375 C 103.3125 553.179688 101.015625 552.941406 100.347656 551.703125 C 99.683594 550.460938 103.945312 543.945312 109.820312 537.222656 C 115.695312 530.5 122.894531 524.40625 125.8125 523.683594 C 128.734375 522.960938 132.070312 520.410156 133.226562 518.015625 C 134.480469 515.417969 139.382812 512.660156 145.382812 511.175781 C 150.910156 509.804688 156.785156 509.5 158.4375 510.496094 C 160.441406 511.703125 163.402344 510.757812 167.324219 507.65625 C 170.984375 504.761719 173.109375 500.371094 172.941406 496.046875 C 172.796875 492.21875 173.585938 488.863281 174.699219 488.585938 C 175.816406 488.3125 181.183594 490.84375 186.628906 494.210938 C 192.078125 497.582031 198.03125 501.746094 199.863281 503.46875 C 201.691406 505.1875 205.804688 506.707031 209 506.84375 C 214.492188 507.082031 214.640625 506.417969 211.753906 494.757812 C 209.867188 487.144531 207.914062 483.21875 206.660156 484.503906 C 205.535156 485.648438 204.335938 485.441406 203.988281 484.039062 C 203.640625 482.636719 201.734375 481.890625 199.746094 482.382812 C 197.761719 482.875 195.859375 482.148438 195.515625 480.765625 C 195.171875 479.382812 193.609375 478.871094 192.042969 479.628906 C 190.472656 480.390625 185.59375 479.714844 181.195312 478.136719 C 174.421875 475.699219 172.179688 475.964844 166.5 479.882812 C 161.582031 483.273438 158.765625 484.007812 155.921875 482.632812 C 153.6875 481.554688 148.007812 482.355469 142.53125 484.515625 C 137.300781 486.582031 131.152344 491.164062 128.871094 494.691406 C 126.589844 498.222656 123.042969 500.902344 120.992188 500.644531 C 118.9375 500.390625 114.410156 504.457031 110.929688 509.679688 C 105.957031 517.140625 102.945312 519.339844 96.90625 519.929688 C 92.363281 520.371094 87.132812 522.855469 84.128906 525.996094 C 81.335938 528.921875 78.667969 532.097656 78.199219 533.050781 C 77.734375 534.003906 75.414062 536.246094 73.050781 538.035156 C 70.683594 539.824219 67.097656 541.898438 65.082031 542.644531 C 63.066406 543.390625 57.859375 550.214844 53.511719 557.8125 C 49.167969 565.410156 43.847656 572.066406 41.695312 572.605469 C 39.542969 573.144531 36.816406 575.582031 35.640625 578.019531 C 33.859375 581.703125 34.699219 583.234375 40.554688 587.023438 C 46.804688 591.0625 48.097656 591.074219 51.8125 587.132812 C 54.121094 584.683594 58.226562 581.496094 60.941406 580.042969 C 64.007812 578.40625 66.664062 578.550781 67.980469 580.4375 C 69.140625 582.101562 72.300781 582.914062 75 582.246094 C 79.335938 581.171875 79.699219 581.699219 78.113281 586.75 C 76.554688 591.714844 77.21875 592.898438 83.132812 595.710938 C 86.878906 597.492188 90.679688 598.203125 91.570312 597.289062 C 92.464844 596.378906 98.574219 597.15625 105.144531 599.019531 C 111.714844 600.886719 120.542969 601.570312 124.761719 600.542969 C 128.980469 599.515625 135.167969 598.972656 138.511719 599.339844 C 141.855469 599.707031 153.46875 596.84375 164.324219 592.976562 C 176.175781 588.753906 185.308594 584.09375 187.179688 581.3125 Z M 187.179688 581.3125 " fill-opacity="1" fill-rule="nonzero"/><path fill="#262626" d="M 189.429688 414.710938 C 192.378906 414.898438 195.746094 411.878906 198.984375 406.136719 C 201.738281 401.257812 209.566406 392.898438 216.386719 387.554688 C 223.203125 382.210938 228.515625 376.753906 228.1875 375.425781 C 227.855469 374.101562 228.730469 373.382812 230.125 373.828125 C 231.519531 374.277344 232.765625 373.339844 232.890625 371.746094 C 233.042969 369.839844 237.652344 369.640625 246.375 371.167969 C 253.664062 372.445312 262.882812 374.304688 266.859375 375.304688 C 270.835938 376.304688 276.933594 376.417969 280.414062 375.558594 C 283.890625 374.695312 287.761719 375.460938 289.011719 377.257812 C 290.265625 379.054688 293.238281 380.042969 295.613281 379.457031 C 298.273438 378.796875 300.332031 375.09375 300.972656 369.824219 C 301.75 363.476562 302.554688 362.285156 304.101562 365.21875 C 305.25 367.394531 307.191406 368.925781 308.417969 368.621094 C 309.644531 368.316406 313.453125 369.757812 316.878906 371.828125 C 320.304688 373.890625 327.222656 375.140625 332.253906 374.597656 L 341.394531 373.613281 L 332.664062 369.300781 L 332.667969 369.300781 C 327.867188 366.929688 320.578125 363.03125 316.472656 360.632812 C 312.367188 358.234375 306.105469 356.15625 302.558594 356.011719 C 299.011719 355.867188 291.886719 353.085938 286.722656 349.832031 C 279.695312 345.398438 274.34375 344.230469 265.40625 345.1875 C 258.839844 345.890625 252.523438 347.75 251.359375 349.316406 C 250.195312 350.886719 246.128906 352.335938 242.3125 352.539062 C 238.5 352.742188 235.144531 351.953125 234.855469 350.78125 C 234.566406 349.613281 232.96875 348.992188 231.304688 349.40625 C 229.644531 349.816406 226.070312 347.300781 223.367188 343.808594 C 220.660156 340.320312 217.910156 333.816406 217.25 329.359375 C 216.191406 322.210938 217.109375 320.667969 225.035156 316.292969 C 229.980469 313.5625 235.851562 309.910156 238.089844 308.171875 C 240.4375 306.347656 245.171875 305.371094 249.3125 305.863281 C 253.789062 306.394531 257.757812 305.511719 259.898438 303.503906 C 261.78125 301.738281 265.46875 300.433594 268.09375 300.605469 C 270.820312 300.78125 273.78125 299.019531 275 296.496094 C 276.171875 294.066406 278.652344 291.703125 280.507812 291.242188 C 282.363281 290.78125 284.25 287.367188 284.703125 283.652344 C 285.148438 279.9375 285.007812 274.835938 284.386719 272.316406 C 283.554688 268.964844 282.21875 268.429688 279.421875 270.324219 C 277.316406 271.75 275.082031 274.566406 274.460938 276.582031 C 273.835938 278.597656 271.753906 280.636719 269.835938 281.113281 C 267.917969 281.589844 266.542969 282.789062 266.789062 283.785156 C 267.03125 284.777344 255.53125 288.226562 241.230469 291.445312 C 226.925781 294.667969 212.6875 297.902344 209.582031 298.636719 C 206.476562 299.371094 203.125 300.796875 202.136719 301.808594 C 201.144531 302.820312 200.117188 308.21875 199.84375 313.800781 C 199.457031 321.800781 200.195312 324.570312 203.324219 326.878906 C 206.179688 328.984375 206.789062 330.863281 205.492188 333.546875 C 204.5 335.605469 204.503906 341.691406 205.507812 347.078125 C 206.507812 352.464844 208.453125 357.972656 209.832031 359.320312 C 211.207031 360.664062 213.828125 361.398438 215.660156 360.945312 C 217.488281 360.492188 219.722656 360.839844 220.621094 361.722656 C 221.523438 362.601562 220.46875 363.878906 218.28125 364.554688 C 216.09375 365.230469 210.875 368.179688 206.683594 371.101562 C 202.488281 374.027344 194.070312 381.707031 187.972656 388.171875 C 181.875 394.632812 175.824219 400.183594 174.523438 400.507812 C 173.222656 400.828125 171.28125 404.289062 170.203125 408.199219 C 169.128906 412.109375 169.371094 416.921875 170.746094 418.894531 C 172.777344 421.804688 174.339844 421.722656 179.0625 418.445312 C 182.261719 416.226562 186.925781 414.546875 189.429688 414.710938 Z M 268.464844 356 C 271.011719 355.8125 274.9375 357.167969 277.1875 359.007812 C 279.4375 360.851562 282.722656 361.351562 284.484375 360.121094 C 286.25 358.890625 287.792969 358.277344 287.910156 358.765625 C 288.027344 359.25 286.308594 361.523438 284.085938 363.816406 C 281.863281 366.109375 279.183594 368.199219 278.125 368.460938 C 277.066406 368.722656 273.421875 366.101562 270.019531 362.636719 C 264.03125 356.539062 263.980469 356.328125 268.464844 356 Z M 268.464844 356 " fill-opacity="1" fill-rule="nonzero"/></svg>