<svg xmlns="http://www.w3.org/2000/svg" xmlns:xlink="http://www.w3.org/1999/xlink" width="794" zoomAndPan="magnify" viewBox="0 0 594.95996 842.24997" height="1123" preserveAspectRatio="xMidYMid meet" version="1.0"><defs><clipPath id="b6199339a7"><path d="M 0.246094 166.070312 L 594.675781 166.070312 L 594.675781 674.867188 L 0.246094 674.867188 Z M 0.246094 166.070312 " clip-rule="nonzero"/></clipPath></defs><g clip-path="url(#b6199339a7)"><path fill="#ead5bb" d="M 54.058594 340.707031 L 91.03125 258.425781 L 139.765625 255.066406 L 164.972656 204.691406 L 297.734375 166.070312 L 343.109375 192.9375 L 425.453125 176.144531 L 517.882812 256.746094 L 563.253906 349.101562 L 595.183594 402.835938 L 544.769531 486.796875 L 465.785156 515.339844 L 477.550781 579.152344 L 462.425781 637.921875 L 366.636719 674.867188 L 237.234375 656.394531 L 122.960938 644.640625 L 60.78125 564.039062 L 57.421875 488.476562 L 0.28125 453.210938 L 15.40625 379.328125 Z M 54.058594 340.707031 " fill-opacity="1" fill-rule="nonzero"/></g><path fill="#262626" d="M 557.835938 394.871094 C 556.363281 386.214844 553.925781 381.0625 549.207031 376.601562 C 545.589844 373.1875 541.953125 368.851562 541.121094 366.964844 C 540.292969 365.082031 537.800781 360.457031 535.578125 356.691406 C 533.359375 352.921875 531.578125 345.984375 531.632812 341.273438 C 531.679688 336.5625 530.871094 332.710938 529.839844 332.710938 C 528.800781 332.710938 528.617188 331.644531 529.421875 330.34375 C 530.226562 329.039062 528.742188 323.871094 526.125 318.851562 C 523.511719 313.835938 521.335938 307.453125 521.308594 304.664062 C 521.273438 301.875 517.179688 295.160156 512.207031 289.742188 C 505.753906 282.703125 501.691406 280.089844 498.007812 280.605469 C 495.125 281.007812 492.703125 280.066406 492.539062 278.472656 C 492.371094 276.902344 492.105469 273.5 491.941406 270.914062 C 491.765625 267.976562 490.664062 266.824219 489.019531 267.84375 C 487.394531 268.84375 487 268.46875 487.992188 266.867188 C 488.878906 265.433594 487.574219 262.082031 485.09375 259.417969 C 482.460938 256.597656 479.425781 255.292969 477.808594 256.289062 C 476.089844 257.351562 471.90625 254.539062 466.777344 248.871094 C 462.234375 243.851562 454.515625 237.867188 449.625 235.574219 C 444.738281 233.28125 438.785156 228.101562 436.402344 224.066406 C 434.023438 220.03125 429.792969 216.121094 427.011719 215.375 C 424.226562 214.632812 420.054688 214.007812 417.738281 213.988281 C 415.421875 213.972656 410.996094 211.96875 407.902344 209.535156 C 404.484375 206.847656 398.871094 205.152344 393.605469 205.230469 C 388.835938 205.296875 382.464844 204.527344 379.445312 203.519531 C 376.425781 202.515625 371.382812 201.929688 368.242188 202.226562 C 365.097656 202.523438 359.761719 205.941406 356.382812 209.820312 C 351.433594 215.503906 348.285156 216.957031 340.191406 217.292969 C 331.308594 217.664062 329.707031 216.949219 326.359375 211.117188 C 322.898438 205.09375 321.660156 204.597656 312.085938 205.402344 C 306.320312 205.882812 300.90625 207.402344 300.054688 208.777344 C 299.132812 210.269531 292.597656 211.039062 283.785156 210.691406 C 275.152344 210.347656 268.695312 209.015625 268.179688 207.464844 C 267.695312 206.015625 263.335938 204.824219 258.496094 204.824219 C 253.652344 204.824219 246.941406 203.78125 243.574219 202.503906 C 238.410156 200.542969 235.714844 201.25 226.25 207.070312 C 220.085938 210.859375 213.515625 213.960938 211.648438 213.960938 C 209.78125 213.960938 208.253906 214.949219 208.253906 216.15625 C 208.253906 217.367188 203.886719 219.527344 198.542969 220.96875 C 193.199219 222.40625 188.316406 223.554688 187.6875 223.503906 C 187.058594 223.457031 185 224.734375 183.113281 226.339844 C 181.230469 227.941406 178.03125 229.835938 176.007812 230.550781 C 173.984375 231.261719 171.15625 236.496094 169.722656 242.1875 C 168.289062 247.875 164.980469 254.023438 162.371094 255.847656 C 158.867188 258.300781 157.910156 260.871094 158.722656 265.683594 C 159.324219 269.265625 160.578125 274.097656 161.511719 276.425781 C 162.574219 279.0625 162.078125 281.351562 160.203125 282.511719 C 158.535156 283.539062 157.363281 287.769531 157.578125 291.984375 C 157.789062 296.175781 158.222656 305.457031 158.539062 312.617188 C 158.859375 319.777344 160.402344 326.917969 161.972656 328.488281 C 163.546875 330.058594 164.832031 334.222656 164.832031 337.738281 C 164.832031 341.257812 164.402344 344.132812 163.875 344.132812 C 163.351562 344.132812 161.175781 344.800781 159.046875 345.617188 C 155.734375 346.886719 155.402344 346.0625 156.757812 339.910156 C 157.808594 335.125 157.464844 332.714844 155.734375 332.714844 C 154.304688 332.714844 153.757812 331.707031 154.515625 330.476562 C 155.277344 329.25 154.742188 326.082031 153.328125 323.4375 C 151.296875 319.648438 151.503906 317.804688 154.304688 314.710938 C 157.132812 311.589844 157.394531 309.117188 155.589844 302.585938 C 154.34375 298.078125 151.753906 293.082031 149.832031 291.488281 C 147.910156 289.898438 142.789062 288.726562 138.453125 288.890625 C 134.117188 289.050781 128.25 288.3125 125.417969 287.246094 C 121.53125 285.785156 117.097656 286.996094 107.398438 292.171875 C 96.753906 297.851562 94.085938 300.523438 91.949219 307.644531 C 90.527344 312.382812 87.84375 316.839844 85.980469 317.554688 C 84.117188 318.269531 82.570312 321.199219 82.542969 324.070312 C 82.519531 326.941406 82.066406 333.398438 81.539062 338.421875 C 81.011719 343.445312 81.125 349.832031 81.792969 352.613281 C 82.460938 355.394531 85.042969 358.316406 87.523438 359.101562 C 90.007812 359.890625 91.46875 361.105469 90.769531 361.804688 C 90.074219 362.5 84.082031 364.914062 77.457031 367.164062 C 70.832031 369.414062 65.074219 370.300781 64.65625 369.132812 C 64.242188 367.964844 62.1875 368.714844 60.085938 370.800781 C 57.988281 372.886719 52.359375 379.8125 47.578125 386.195312 C 39.875 396.476562 38.972656 399.03125 39.6875 408.570312 C 40.132812 414.492188 41.097656 419.941406 41.839844 420.679688 C 42.578125 421.417969 41.859375 426.402344 40.25 431.757812 C 38.636719 437.109375 37.84375 444.25 38.488281 447.621094 C 39.136719 450.992188 40.570312 453.75 41.683594 453.75 C 42.792969 453.75 43.699219 456.128906 43.699219 459.039062 C 43.699219 462.820312 45.953125 465.398438 51.617188 468.097656 C 55.96875 470.171875 62.226562 475.9375 65.519531 480.910156 C 68.8125 485.882812 73.074219 490.550781 74.992188 491.285156 C 78.066406 492.464844 78.015625 493.328125 74.582031 498.566406 C 72.207031 502.183594 71.164062 506.863281 71.914062 510.53125 C 72.589844 513.84375 74.367188 521.949219 75.863281 528.542969 C 78.332031 539.394531 79.179688 540.53125 84.792969 540.53125 C 88.203125 540.53125 93.277344 542.511719 96.066406 544.925781 C 98.855469 547.34375 101.117188 550.171875 101.089844 551.207031 C 101.0625 552.246094 101.605469 555.664062 102.300781 558.804688 C 102.992188 561.941406 105.492188 570.109375 107.855469 576.949219 C 110.214844 583.789062 113.664062 590.234375 115.515625 591.269531 C 117.367188 592.304688 121.183594 597.242188 123.992188 602.238281 C 128.21875 609.753906 130.320312 611.328125 136.125 611.328125 C 141.726562 611.328125 143.757812 612.710938 146.179688 618.179688 C 147.851562 621.949219 150.671875 625.03125 152.453125 625.03125 C 154.234375 625.03125 155.691406 626.058594 155.691406 627.316406 C 155.691406 628.570312 159.871094 629.597656 164.980469 629.597656 C 170.09375 629.597656 176.519531 628.351562 179.265625 626.820312 C 182.011719 625.292969 189.402344 624.019531 195.6875 623.964844 C 205.140625 623.902344 207.058594 623.199219 206.796875 619.894531 C 206.621094 617.695312 207.796875 615.898438 209.410156 615.898438 C 211.019531 615.898438 212.972656 614.613281 213.75 613.042969 C 214.527344 611.472656 217.035156 607.105469 219.324219 603.335938 C 221.609375 599.570312 225.457031 596.355469 227.867188 596.21875 C 230.28125 596.074219 236.109375 594.871094 240.824219 593.546875 C 247.214844 591.761719 249.398438 591.828125 249.410156 593.816406 C 249.417969 595.285156 250.898438 599.3125 252.703125 602.769531 C 255.554688 608.230469 255.550781 609.046875 252.6875 609.046875 C 250.878906 609.046875 249.394531 609.832031 249.394531 610.792969 C 249.394531 611.75 247.109375 613.546875 244.316406 614.789062 C 241.523438 616.027344 236.210938 621.957031 232.511719 627.96875 C 227.898438 635.460938 226.523438 639.632812 228.136719 641.246094 C 229.75 642.859375 231.582031 642.511719 233.957031 640.136719 C 235.863281 638.230469 237.886719 637.136719 238.453125 637.703125 C 239.019531 638.269531 240.785156 636.308594 242.371094 633.34375 C 243.957031 630.378906 248.613281 626.925781 252.714844 625.667969 C 259.308594 623.644531 261 624.105469 267.351562 629.648438 C 271.304688 633.09375 274.535156 637.375 274.535156 639.152344 C 274.535156 640.933594 275.820312 643.707031 277.394531 645.3125 C 279.496094 647.464844 284.730469 647.824219 297.222656 646.679688 L 297.222656 646.667969 C 306.558594 645.8125 315.816406 644.339844 317.792969 643.390625 C 319.773438 642.441406 324.660156 639.957031 328.660156 637.875 C 332.660156 635.78125 336.417969 634.875 337.011719 635.835938 C 337.609375 636.796875 341.019531 637.449219 344.597656 637.289062 C 348.175781 637.125 352.96875 636.21875 355.246094 635.273438 C 357.527344 634.332031 361.976562 634.734375 365.132812 636.171875 C 368.289062 637.601562 371.75 638.238281 372.828125 637.574219 C 373.902344 636.914062 375.429688 637.414062 376.21875 638.691406 C 377.007812 639.96875 380.179688 641.011719 383.265625 641.011719 C 386.347656 641.011719 390.660156 640.019531 392.84375 638.808594 C 395.023438 637.597656 401.527344 634.566406 407.292969 632.070312 C 413.058594 629.578125 419.097656 625.945312 420.714844 623.996094 C 422.332031 622.050781 425.019531 620.460938 426.683594 620.460938 C 428.351562 620.460938 432.339844 618.03125 435.546875 615.058594 C 438.753906 612.089844 441.378906 608.683594 441.378906 607.496094 C 441.378906 606.304688 444.464844 603.054688 448.234375 600.265625 C 452.558594 597.074219 455.09375 593.164062 455.09375 589.695312 C 455.09375 586.667969 454.011719 583.523438 452.695312 582.707031 C 451.277344 581.835938 451.117188 580.144531 452.292969 578.578125 C 453.390625 577.121094 454.5625 571.3125 454.902344 565.671875 C 455.242188 560.03125 456.421875 553.734375 457.519531 551.683594 C 458.910156 549.085938 458.230469 546.792969 455.265625 544.113281 C 452.777344 541.859375 451.496094 538.449219 452.167969 535.867188 C 452.804688 533.449219 452.679688 528.910156 451.894531 525.785156 C 451.109375 522.660156 448.570312 518.277344 446.253906 516.042969 C 443.933594 513.808594 441.394531 508.613281 440.609375 504.5 L 439.183594 497.011719 L 449.554688 497.902344 C 455.257812 498.390625 463.210938 497.613281 467.222656 496.167969 C 472.226562 494.285156 477.09375 492.105469 481.835938 489.632812 C 485.855469 487.480469 490.691406 485.71875 492.578125 485.71875 C 494.460938 485.71875 496.828125 484.3125 497.832031 482.589844 C 498.839844 480.871094 505.589844 476.675781 512.835938 473.273438 C 521.324219 469.289062 527.207031 464.785156 529.359375 460.621094 C 531.199219 457.066406 533.917969 453.757812 535.398438 453.261719 C 536.882812 452.769531 538.40625 450.332031 538.785156 447.847656 C 539.3125 444.394531 538.222656 443.371094 534.167969 443.558594 C 531.25 443.6875 525.132812 445.558594 520.578125 447.71875 C 516.019531 449.882812 511.03125 453.917969 509.484375 456.695312 C 507.941406 459.46875 506.652344 462.726562 506.597656 463.929688 C 506.554688 465.136719 502.917969 466.960938 498.519531 467.988281 C 494.117188 469.015625 487.433594 470.441406 483.660156 471.164062 C 479.890625 471.882812 474.746094 473.589844 472.234375 474.957031 C 469.71875 476.328125 466.121094 477.726562 464.234375 478.070312 C 462.347656 478.417969 456.179688 479.222656 450.523438 479.867188 C 444.863281 480.507812 438.066406 481.558594 435.414062 482.195312 C 432.417969 482.917969 429.101562 481.714844 426.65625 479.011719 C 424.488281 476.621094 417.402344 473.425781 410.90625 471.917969 C 404.414062 470.410156 396.496094 466.757812 393.320312 463.800781 C 390.140625 460.847656 384.300781 457.300781 380.34375 455.921875 C 375.539062 454.246094 372.34375 451.125 370.753906 446.558594 C 369.332031 442.480469 367.335938 440.332031 365.835938 441.261719 C 364.445312 442.121094 361.613281 440.40625 359.542969 437.453125 C 357.472656 434.5 355.578125 430.703125 355.328125 429.019531 C 355.082031 427.335938 353.175781 424.710938 351.09375 423.191406 C 349.011719 421.667969 346.972656 416.859375 346.570312 412.5 C 345.882812 405.125 346.300781 404.570312 352.613281 404.300781 C 356.34375 404.148438 361.640625 402.109375 364.390625 399.769531 C 367.136719 397.425781 371.492188 394.347656 374.070312 392.921875 C 377.671875 390.933594 379.730469 391.046875 382.984375 393.425781 C 385.3125 395.128906 390.402344 396.105469 394.300781 395.601562 C 398.195312 395.097656 408.058594 394.019531 416.214844 393.207031 C 424.375 392.398438 432.128906 390.839844 433.449219 389.746094 C 434.769531 388.648438 439.257812 387.152344 443.425781 386.417969 C 447.589844 385.6875 452.507812 383.578125 454.351562 381.734375 C 456.195312 379.890625 458.660156 378.382812 459.828125 378.382812 C 460.992188 378.382812 461.949219 379.410156 461.949219 380.667969 C 461.949219 381.925781 465.046875 382.953125 468.835938 382.953125 C 472.625 382.953125 478.023438 381.667969 480.835938 380.097656 C 483.644531 378.527344 486.613281 376.324219 487.429688 375.199219 C 488.246094 374.074219 490.492188 373.757812 492.425781 374.5 C 494.359375 375.242188 498.503906 373.832031 501.640625 371.367188 C 505.816406 368.097656 509.667969 367.171875 516.035156 367.960938 C 520.816406 368.554688 525.089844 370.113281 525.527344 371.429688 C 525.964844 372.742188 527.335938 373.820312 528.570312 373.820312 C 529.808594 373.820312 534.351562 377.558594 538.667969 382.132812 C 542.980469 386.703125 546.511719 391.78125 546.511719 393.414062 C 546.511719 395.050781 545.4375 397.050781 544.121094 397.863281 C 542.808594 398.671875 541.957031 404.21875 542.226562 410.183594 C 542.550781 417.296875 541.410156 422.902344 538.902344 426.480469 C 536.804688 429.476562 535.082031 433.269531 535.082031 434.917969 C 535.082031 436.5625 536.554688 438.46875 538.351562 439.160156 C 540.320312 439.914062 545.09375 436.570312 550.351562 430.753906 C 556.054688 424.445312 559.214844 418.644531 559.484375 414.015625 C 559.707031 410.121094 558.960938 401.503906 557.835938 394.871094 Z M 327.054688 285.949219 C 330.851562 282.316406 334.039062 279.789062 334.132812 280.339844 C 334.226562 280.886719 334.546875 284.933594 334.84375 289.328125 C 335.136719 293.726562 336.59375 299.550781 338.078125 302.273438 C 339.5625 305 341.417969 318.359375 342.203125 331.964844 C 342.984375 345.566406 343.457031 361.21875 343.25 366.738281 C 343.042969 372.261719 341.355469 379.710938 339.5 383.296875 C 337.644531 386.878906 335.382812 389.757812 334.472656 389.675781 C 333.5625 389.601562 328.957031 386.890625 324.242188 383.652344 C 318.613281 379.792969 312.59375 377.769531 306.714844 377.769531 C 299.535156 377.769531 297.503906 376.816406 296.464844 372.945312 C 295.75 370.289062 295.15625 365.546875 295.140625 362.40625 C 295.121094 359.265625 296.945312 351.863281 299.191406 345.957031 C 301.4375 340.046875 304.007812 334.480469 304.90625 333.585938 C 305.800781 332.691406 306.535156 330.074219 306.535156 327.769531 C 306.535156 325.46875 307.5625 323.585938 308.820312 323.585938 C 310.078125 323.585938 311.105469 320.984375 311.105469 317.804688 C 311.105469 314.625 312.527344 311.476562 314.261719 310.8125 C 316 310.144531 318.035156 305.765625 318.785156 301.082031 C 319.628906 295.816406 322.789062 290.035156 327.054688 285.949219 Z M 177.402344 292.445312 C 179.679688 291.574219 180.832031 287.984375 180.832031 281.75 C 180.832031 276.585938 182.515625 267.957031 184.574219 262.566406 C 187.550781 254.777344 190.765625 251.375 200.28125 245.933594 C 206.859375 242.175781 213.949219 239.097656 216.035156 239.097656 C 218.121094 239.097656 220.398438 237.617188 221.089844 235.808594 C 221.785156 234 224.828125 230.902344 227.851562 228.921875 C 232.394531 225.945312 234.152344 225.824219 238.011719 228.214844 C 241.683594 230.484375 243.050781 230.503906 244.425781 228.296875 C 245.597656 226.417969 252.347656 225.574219 264.90625 225.734375 C 275.210938 225.867188 284.933594 224.96875 286.515625 223.730469 C 288.097656 222.492188 291.703125 220.914062 294.53125 220.222656 C 297.359375 219.53125 300.140625 219.726562 300.714844 220.65625 C 301.292969 221.597656 304.714844 221.910156 308.328125 221.378906 C 314.351562 220.496094 315.292969 221.367188 319.65625 231.859375 C 323.246094 240.492188 323.96875 245.277344 322.601562 251.339844 C 321.605469 255.761719 318.667969 262.074219 316.074219 265.367188 C 313.480469 268.660156 311.917969 272.804688 312.597656 274.574219 C 313.277344 276.347656 312.21875 279.410156 310.242188 281.382812 C 308.269531 283.355469 305.480469 289.292969 304.042969 294.574219 C 302.609375 299.855469 301.214844 305.203125 300.953125 306.460938 C 300.6875 307.714844 299.082031 313.367188 297.386719 319.019531 C 295.691406 324.671875 293.40625 330.492188 292.304688 331.953125 C 291.203125 333.414062 289.785156 337.46875 289.152344 340.960938 C 288.519531 344.453125 286 348.714844 283.554688 350.425781 C 281.109375 352.136719 279.105469 355.421875 279.105469 357.734375 C 279.105469 361.332031 277.992188 361.679688 271.292969 360.167969 C 266.683594 359.128906 260.128906 359.457031 255.296875 360.96875 C 250.792969 362.375 247.109375 364.304688 247.109375 365.25 C 247.109375 365.480469 247.066406 365.695312 246.980469 365.90625 C 246.894531 366.117188 246.769531 366.300781 246.609375 366.460938 C 246.449219 366.625 246.261719 366.746094 246.050781 366.832031 C 245.84375 366.917969 245.625 366.960938 245.394531 366.960938 L 245.398438 366.96875 C 244.453125 366.960938 240.730469 365.417969 237.125 363.539062 C 232.953125 361.363281 225.625 360.332031 216.96875 360.699219 C 206.003906 361.164062 202.933594 360.5 201.128906 357.277344 C 199.898438 355.082031 197.511719 353.28125 195.832031 353.28125 C 194.152344 353.28125 192.199219 350.457031 191.496094 347 C 190.789062 343.546875 188.355469 333.882812 186.09375 325.527344 C 183.828125 317.171875 180.175781 308.355469 177.972656 305.9375 C 175.773438 303.519531 173.972656 299.789062 173.972656 297.652344 C 173.972656 295.511719 175.519531 293.171875 177.402344 292.445312 Z M 267.992188 394.941406 C 265.015625 392.867188 259.121094 391.421875 254.851562 391.707031 C 249.371094 392.074219 247.109375 391.261719 247.109375 388.910156 C 247.109375 387.085938 250.171875 384.925781 253.914062 384.101562 C 257.660156 383.289062 262.75 383.265625 265.226562 384.046875 C 267.960938 384.917969 269.234375 386.777344 268.460938 388.785156 C 267.761719 390.605469 268.328125 392.09375 269.722656 392.09375 C 271.113281 392.09375 272.25 391.019531 272.25 389.707031 C 272.25 388.390625 274.789062 389.160156 277.894531 391.417969 C 280.996094 393.675781 283.566406 396.292969 283.605469 397.234375 C 283.644531 398.179688 281.363281 398.882812 278.535156 398.828125 L 278.535156 398.816406 C 275.707031 398.75 270.964844 397.007812 267.992188 394.941406 Z M 97.15625 339.488281 C 97.875 328.796875 99.929688 318.539062 102.070312 314.914062 C 104.09375 311.488281 108.246094 307.511719 111.292969 306.074219 C 114.34375 304.636719 116.835938 304.1875 116.835938 305.070312 C 116.835938 305.96875 120.316406 306.277344 124.566406 305.78125 C 128.816406 305.285156 132.933594 305.90625 133.710938 307.167969 C 134.488281 308.425781 136.003906 315.460938 137.082031 322.800781 C 138.152344 330.140625 139.4375 337.6875 139.933594 339.570312 C 140.429688 341.453125 142.863281 344.183594 145.347656 345.636719 C 149.335938 347.96875 148.609375 348.460938 139.035156 349.894531 C 133.078125 350.785156 127.695312 352.351562 127.0625 353.367188 C 126.433594 354.386719 122.875 354.832031 119.15625 354.363281 C 115.4375 353.890625 111.789062 354.480469 111.050781 355.671875 C 110.3125 356.863281 106.609375 357.839844 102.816406 357.839844 L 95.921875 357.839844 Z M 263.105469 454.902344 C 261.589844 455.835938 261.664062 457.910156 263.316406 460.992188 C 265.125 464.371094 265.125 466.359375 263.320312 468.160156 C 261.949219 469.535156 260.824219 474.5625 260.824219 479.335938 C 260.824219 485.132812 259.214844 489.621094 255.976562 492.859375 C 252.222656 496.609375 250.957031 501.121094 250.367188 512.839844 C 249.949219 521.164062 248.476562 532.601562 247.097656 538.253906 C 245.71875 543.90625 244.675781 551.871094 244.78125 555.953125 C 244.882812 560.035156 243.925781 563.375 242.65625 563.375 C 241.382812 563.375 239.707031 565.902344 238.929688 568.992188 C 238.089844 572.332031 233.214844 577.320312 226.886719 581.308594 C 221.042969 584.992188 213.683594 588.78125 210.542969 589.722656 C 207.398438 590.664062 203.4375 593.414062 201.734375 595.828125 C 200.03125 598.246094 197.203125 599.671875 195.449219 599 C 193.695312 598.324219 192.257812 599.027344 192.257812 600.558594 C 192.257812 602.140625 189.054688 603.417969 184.828125 603.5 C 180.746094 603.585938 174.058594 604.4375 169.972656 605.394531 L 169.972656 605.390625 C 163.898438 606.808594 162.265625 606.363281 161 602.945312 C 160.152344 600.648438 156.953125 595.4375 153.894531 591.367188 C 150.832031 587.300781 148.929688 582.40625 149.660156 580.5 C 150.449219 578.453125 149.144531 575.878906 146.484375 574.21875 C 144.007812 572.671875 141.980469 570.210938 141.980469 568.753906 C 141.980469 567.292969 138.703125 564.960938 134.703125 563.566406 C 129.757812 561.84375 126.960938 561.78125 125.972656 563.378906 C 125.175781 564.667969 121.25 561.171875 117.25 555.609375 C 113.253906 550.046875 109.980469 544.320312 109.980469 542.886719 C 109.980469 541.453125 106.765625 533.914062 102.832031 526.132812 C 98.898438 518.351562 94.878906 510.351562 93.898438 508.355469 C 92.921875 506.359375 93.019531 503.277344 94.125 501.503906 C 95.761719 498.875 96.976562 498.808594 100.738281 501.136719 C 103.273438 502.707031 107.359375 503.992188 109.816406 503.992188 C 112.273438 503.992188 114.894531 503.003906 115.640625 501.796875 C 116.511719 500.390625 119.082031 500.390625 122.785156 501.796875 C 125.96875 503.007812 134.320312 503.324219 141.347656 502.496094 L 154.121094 500.996094 L 152.621094 508.488281 C 151.796875 512.609375 151.121094 517.398438 151.121094 519.121094 C 151.117188 519.539062 151.035156 519.941406 150.871094 520.328125 C 150.710938 520.714844 150.480469 521.054688 150.183594 521.347656 C 149.882812 521.640625 149.542969 521.867188 149.15625 522.027344 C 148.769531 522.183594 148.363281 522.265625 147.945312 522.261719 C 146.199219 522.261719 141.902344 525.859375 138.394531 530.257812 C 134.886719 534.652344 130.65625 538.25 129 538.25 C 127.21875 538.25 125.980469 540.867188 125.980469 544.644531 C 125.980469 548.160156 127.214844 552.269531 128.722656 553.777344 C 130.230469 555.285156 132.546875 556.511719 133.867188 556.507812 C 135.183594 556.5 140.179688 552.90625 144.964844 548.515625 C 149.746094 544.125 154.167969 540.53125 154.785156 540.53125 C 155.40625 540.53125 158.433594 537.8125 161.515625 534.488281 C 164.597656 531.167969 167.121094 527.289062 167.121094 525.875 C 167.121094 524.457031 170.71875 521.367188 175.117188 518.996094 C 179.519531 516.628906 183.148438 513.570312 183.179688 512.195312 C 183.214844 510.824219 186.042969 507.003906 189.46875 503.707031 C 192.890625 500.40625 197.746094 497.042969 200.257812 496.222656 C 202.773438 495.40625 207.402344 492.394531 210.542969 489.53125 C 213.6875 486.667969 218.21875 482.070312 220.613281 479.316406 C 224.816406 474.476562 224.824219 474.148438 220.828125 469.738281 C 218.417969 467.078125 213.789062 465.167969 209.742188 465.167969 C 205.3125 465.167969 200.464844 467.398438 196.367188 471.320312 C 191.464844 476.015625 189.3125 476.839844 187.269531 474.800781 C 185.230469 472.761719 183.832031 472.761719 181.382812 474.796875 C 179.613281 476.265625 176.449219 477.738281 174.355469 478.070312 C 172.261719 478.40625 165.917969 479.347656 160.261719 480.164062 C 154.605469 480.980469 148.847656 482.566406 147.464844 483.679688 C 146.082031 484.792969 141.964844 485.238281 138.320312 484.65625 C 134.675781 484.078125 128.609375 482.886719 124.835938 482.011719 C 121.066406 481.136719 116.789062 478.804688 115.332031 476.828125 C 112.953125 473.59375 111.773438 473.71875 103.640625 478.054688 L 94.59375 482.882812 L 87.433594 476.191406 C 83.492188 472.515625 80.269531 467.984375 80.269531 466.121094 C 80.269531 464.261719 78.824219 462.1875 77.058594 461.507812 C 75.292969 460.832031 70.167969 454.738281 65.667969 447.972656 C 59.132812 438.136719 57.773438 434.261719 58.890625 428.675781 C 59.660156 424.828125 61.191406 421.128906 62.289062 420.449219 C 63.390625 419.769531 63.679688 416.789062 62.933594 413.824219 C 62.085938 410.449219 63.183594 406.023438 65.875 401.976562 C 68.238281 398.421875 71.265625 393.457031 72.609375 390.949219 C 74.398438 387.605469 77.632812 386.28125 84.691406 386.003906 C 90.242188 385.789062 95.472656 384.15625 97.015625 382.15625 C 98.492188 380.242188 104.65625 378.164062 110.714844 377.535156 C 116.777344 376.90625 122.949219 375.5 124.429688 374.414062 C 125.910156 373.328125 137.710938 372.609375 150.65625 372.796875 C 165.042969 373.019531 176.367188 374.324219 179.796875 376.160156 C 182.878906 377.808594 185.402344 381.039062 185.402344 383.339844 C 185.402344 385.636719 186.835938 387.519531 188.585938 387.519531 C 190.335938 387.519531 192.570312 389.320312 193.550781 391.515625 C 194.53125 393.714844 195.621094 397.980469 195.972656 401 C 196.324219 404.015625 197.609375 407.480469 198.828125 408.699219 C 200.046875 409.917969 207.039062 411.167969 214.367188 411.476562 C 221.707031 411.785156 231.144531 410.632812 235.390625 408.914062 C 239.632812 407.195312 245.03125 405.789062 247.390625 405.789062 C 249.75 405.789062 251.683594 406.9375 251.683594 408.339844 C 251.683594 409.777344 249.667969 410.363281 247.113281 409.695312 C 244.601562 409.039062 240.011719 409.691406 236.917969 411.140625 C 233.820312 412.59375 230.011719 416.160156 228.449219 419.070312 C 226.144531 423.359375 226.191406 424.714844 228.695312 426.261719 C 230.40625 427.316406 231.140625 429.832031 230.34375 431.90625 C 229.5 434.097656 230.222656 436.15625 232.085938 436.871094 C 233.835938 437.539062 236.484375 441.023438 237.96875 444.613281 C 239.457031 448.199219 241.9375 451.621094 243.476562 452.210938 C 245.019531 452.800781 250.582031 452.5 255.839844 451.539062 C 261.097656 450.589844 265.394531 450.632812 265.394531 451.644531 C 265.394531 452.660156 264.363281 454.125 263.105469 454.902344 Z M 269.699219 439.027344 C 269.125 438.457031 263.554688 437.527344 257.3125 436.960938 C 246.785156 436.011719 245.996094 435.515625 246.386719 430.070312 C 246.621094 426.847656 249.996094 421.09375 253.894531 417.289062 C 257.792969 413.480469 261.761719 410.367188 262.714844 410.367188 C 263.667969 410.367188 269.289062 415.492188 275.207031 421.753906 C 281.125 428.019531 285.964844 433.78125 285.964844 434.558594 C 285.964844 435.339844 284.273438 435.328125 282.207031 434.535156 C 280.136719 433.742188 276.710938 434.660156 274.589844 436.578125 C 272.472656 438.496094 270.269531 439.597656 269.699219 439.027344 Z M 350.207031 460.324219 C 355.371094 465.484375 360.515625 469.140625 361.636719 468.453125 C 362.753906 467.757812 363.671875 468.203125 363.671875 469.4375 C 363.671875 470.667969 366.835938 474.839844 370.703125 478.707031 C 374.570312 482.570312 379.746094 485.734375 382.203125 485.734375 C 384.660156 485.734375 387.226562 487.179688 387.90625 488.949219 C 388.582031 490.71875 394.425781 493.894531 400.886719 496.003906 C 407.351562 498.117188 415.5 502.25 418.996094 505.191406 C 422.492188 508.132812 427.417969 511.191406 429.9375 511.992188 C 432.824219 512.90625 434.523438 515.445312 434.523438 518.851562 C 434.523438 521.824219 435.710938 527.152344 437.164062 530.6875 C 438.617188 534.222656 439.570312 538.972656 439.28125 541.25 C 438.996094 543.523438 439.832031 546.671875 441.140625 548.25 C 442.453125 549.828125 444.210938 556.960938 445.050781 564.097656 C 446.140625 573.355469 445.8125 577.082031 443.902344 577.082031 C 442.433594 577.082031 440.492188 579.011719 439.589844 581.378906 C 438.6875 583.742188 433.660156 590.3125 428.417969 595.976562 C 423.175781 601.636719 414.691406 608.628906 409.5625 611.507812 C 404.433594 614.386719 400.238281 617.390625 400.238281 618.179688 C 400.238281 618.964844 391.238281 619.789062 380.242188 620.007812 C 369.242188 620.222656 357.15625 621.242188 353.386719 622.269531 C 349.613281 623.285156 341.667969 623.875 335.722656 623.554688 C 328.871094 623.1875 323.757812 624.136719 321.746094 626.144531 C 320.003906 627.890625 315.609375 629.136719 311.984375 628.949219 L 311.980469 628.953125 C 308.355469 628.75 300.761719 628.042969 295.105469 627.382812 C 285.496094 626.257812 284.625 625.582031 281.855469 617.105469 C 280.222656 612.113281 277.347656 606.324219 275.457031 604.242188 C 273.453125 602.027344 271.464844 593.726562 270.667969 584.257812 C 269.730469 573.039062 270.171875 567.019531 272.113281 564.683594 C 273.691406 562.785156 274.242188 559.199219 273.375 556.46875 C 272.390625 553.367188 273.0625 550.65625 275.246094 548.9375 C 277.125 547.457031 279.273438 542.136719 280.019531 537.113281 C 280.765625 532.089844 281.875 525.410156 282.480469 522.269531 C 283.085938 519.128906 284.085938 512.449219 284.703125 507.425781 C 285.320312 502.402344 286.304688 496.003906 286.894531 493.210938 C 287.480469 490.414062 290.074219 485.867188 292.648438 483.105469 C 295.226562 480.339844 297.960938 474.730469 298.730469 470.632812 C 299.5 466.539062 299.453125 462.097656 298.625 460.757812 C 297.796875 459.421875 298.203125 458.324219 299.527344 458.324219 C 300.976562 458.324219 301.507812 454.914062 300.859375 449.761719 C 300.269531 445.050781 300.5625 442.433594 301.515625 443.949219 C 302.46875 445.460938 305.785156 446.5625 308.890625 446.398438 C 311.992188 446.234375 315.726562 445.203125 317.1875 444.109375 C 318.753906 442.933594 320.445312 443.101562 321.324219 444.519531 C 322.203125 445.9375 324.390625 446.152344 326.671875 445.050781 C 328.792969 444.023438 331.816406 443.375 333.386719 443.617188 C 334.960938 443.859375 337.273438 444.179688 338.53125 444.339844 C 339.789062 444.5 340.816406 446.046875 340.816406 447.785156 C 340.816406 449.519531 345.042969 455.164062 350.207031 460.324219 Z M 488.839844 359.960938 C 485.789062 365.074219 482.601562 368.570312 481.757812 367.726562 C 480.914062 366.882812 477.746094 367.519531 474.71875 369.136719 C 470.308594 371.507812 466.910156 371.542969 457.664062 369.328125 C 448.28125 367.078125 444.917969 367.140625 439.746094 369.648438 C 435.664062 371.640625 429.433594 372.273438 422.386719 371.449219 C 415.625 370.65625 409.910156 371.191406 407.53125 372.84375 L 407.53125 372.828125 C 404.898438 374.65625 401.847656 374.828125 397.953125 373.363281 C 394.8125 372.175781 389.5625 371.746094 386.289062 372.390625 C 383.015625 373.035156 379.15625 372.390625 377.71875 370.949219 C 376.277344 369.507812 375.097656 367.078125 375.097656 365.542969 C 375.097656 364.007812 379.769531 359.84375 385.476562 356.292969 C 391.183594 352.738281 399.457031 347.519531 403.863281 344.695312 C 408.265625 341.867188 415.167969 339.511719 419.195312 339.484375 C 423.226562 339.445312 428.347656 338.027344 430.578125 336.335938 C 433.394531 334.210938 439.660156 333.527344 451.058594 334.128906 C 461.941406 334.707031 468.082031 336.066406 469.257812 338.164062 C 470.234375 339.90625 473.65625 341.992188 476.867188 342.796875 C 480.078125 343.601562 482.164062 345.128906 481.507812 346.191406 C 480.851562 347.253906 482.910156 348.121094 486.082031 348.121094 C 489.253906 348.121094 492.421875 348.691406 493.121094 349.390625 C 493.820312 350.089844 491.894531 354.84375 488.839844 359.960938 Z M 511 341.855469 C 509.035156 341.855469 504.300781 340.238281 500.476562 338.261719 C 496.648438 336.285156 492.949219 335.238281 492.25 335.9375 C 491.550781 336.636719 489.246094 335.210938 487.128906 332.769531 C 485.007812 330.328125 478.992188 327.644531 473.753906 326.808594 C 468.519531 325.972656 464.234375 324.390625 464.234375 323.296875 C 464.234375 322.199219 462.175781 321.304688 459.664062 321.304688 C 457.148438 321.304688 455.089844 320.382812 455.089844 319.257812 C 455.089844 318.132812 450.71875 316.765625 445.378906 316.222656 C 438.203125 315.488281 434.175781 316.371094 429.96875 319.601562 C 425.253906 323.21875 422.132812 323.707031 411.90625 322.429688 C 400.699219 321.03125 398.980469 321.425781 393.605469 326.632812 C 390.339844 329.789062 383.886719 335.792969 379.257812 339.96875 C 374.632812 344.148438 368.820312 349.269531 366.335938 351.351562 C 361.980469 355.007812 361.722656 354.769531 358.953125 344.5 C 357.371094 338.652344 356.308594 332.496094 356.589844 330.824219 C 356.871094 329.152344 355.644531 325.558594 353.867188 322.832031 C 352.085938 320.105469 350.121094 310.660156 349.496094 301.835938 C 348.871094 293.015625 346.917969 283.25 345.15625 280.140625 C 343.398438 277.03125 341.148438 273.886719 340.15625 273.15625 C 339.164062 272.421875 339.464844 268.90625 340.820312 265.339844 C 342.179688 261.773438 342.761719 257.480469 342.117188 255.804688 C 341.472656 254.125 342.113281 249.933594 343.546875 246.492188 C 344.976562 243.046875 346.234375 239.519531 346.339844 238.648438 C 346.445312 237.777344 348.664062 235.078125 351.277344 232.648438 C 353.886719 230.21875 358.253906 227.519531 360.976562 226.660156 C 363.699219 225.792969 367.570312 223.449219 369.578125 221.441406 C 372.488281 218.53125 373.597656 218.394531 375.0625 220.761719 C 376.355469 222.847656 380.488281 223.386719 388.996094 222.570312 C 396.46875 221.851562 403.875 222.570312 408.375 224.449219 C 412.378906 226.109375 416.230469 226.917969 416.929688 226.21875 C 417.628906 225.519531 423.132812 229.871094 429.15625 235.894531 C 435.183594 241.914062 441.683594 249.890625 443.601562 253.617188 C 446.085938 258.441406 449.027344 260.585938 453.796875 261.050781 C 457.480469 261.410156 461.394531 263.304688 462.492188 265.261719 C 463.585938 267.21875 467.046875 271.378906 470.175781 274.507812 C 473.304688 277.636719 477.363281 280.195312 479.191406 280.195312 C 481.019531 280.195312 482.515625 281.15625 482.515625 282.328125 C 482.515625 283.5 484.648438 285.132812 487.253906 285.957031 C 490.195312 286.890625 491.503906 288.726562 490.707031 290.800781 C 489.894531 292.914062 491.925781 295.5625 496.242188 298.015625 C 499.988281 300.148438 503.0625 303.117188 503.074219 304.617188 C 503.078125 306.113281 505.023438 310.738281 507.390625 314.890625 C 509.757812 319.046875 512.339844 326.8125 513.132812 332.152344 C 514.300781 340.039062 513.898438 341.855469 511 341.855469 Z M 511 341.855469 " fill-opacity="1" fill-rule="nonzero"/></svg>